<?xml version="1.0" encoding="UTF-8"?>
<svg width="32px" height="32px" viewBox="0 0 32 32" version="1.1" xmlns="http://www.w3.org/2000/svg" xmlns:xlink="http://www.w3.org/1999/xlink">
    <!-- Generator: Sketch 47.1 (45422) - http://www.bohemiancoding.com/sketch -->
    <title>2</title>
    <desc>Created with Sketch.</desc>
    <defs></defs>
    <g id="Web-ParaPlus" stroke="none" stroke-width="1" fill="none" fill-rule="evenodd">
        <g id="ParaPlus---Home" transform="translate(-191.000000, -1464.000000)">
            <g id="MODO-DE-USO" transform="translate(191.000000, 1286.000000)">
                <g id="Texto" transform="translate(0.000000, 118.000000)">
                    <g id="2" transform="translate(0.000000, 60.000000)">
                        <circle id="Oval-Copy-6" fill="#FF4A4A" cx="16" cy="16" r="16"></circle>
                        <path d="M21.3269043,23 L10.8474121,23 L10.8474121,20.7954102 L14.6105957,16.9912109 C15.7248591,15.8496037 16.4528792,15.0583518 16.7946777,14.6174316 C17.1364763,14.1765115 17.3825676,13.7680683 17.532959,13.3920898 C17.6833504,13.0161114 17.7585449,12.6264669 17.7585449,12.2231445 C17.7585449,11.621579 17.5927751,11.1738296 17.2612305,10.8798828 C16.9296858,10.585936 16.4870633,10.4389648 15.9333496,10.4389648 C15.352292,10.4389648 14.7883328,10.5722643 14.2414551,10.8388672 C13.6945773,11.1054701 13.1237823,11.4848608 12.5290527,11.9770508 L10.8063965,9.93652344 C11.5446814,9.30761404 12.1564917,8.86328255 12.6418457,8.60351562 C13.1271997,8.3437487 13.6569796,8.14379953 14.2312012,8.00366211 C14.8054228,7.86352469 15.4479945,7.79345703 16.1589355,7.79345703 C17.0954637,7.79345703 17.9226038,7.96435376 18.6403809,8.30615234 C19.3581579,8.64795093 19.9152812,9.12646177 20.3117676,9.74169922 C20.7082539,10.3569367 20.9064941,11.0610312 20.9064941,11.8540039 C20.9064941,12.544437 20.7851575,13.1921356 20.5424805,13.7971191 C20.2998035,14.4021026 19.9238307,15.0224578 19.4145508,15.6582031 C18.9052709,16.2939485 18.0080631,17.1997012 16.7229004,18.3754883 L14.795166,20.1904297 L14.795166,20.3339844 L21.3269043,20.3339844 L21.3269043,23 Z" fill="#FFFFFF"></path>
                    </g>
                </g>
            </g>
        </g>
    </g>
</svg>