<?xml version="1.0" encoding="UTF-8"?>
<svg width="32px" height="32px" viewBox="0 0 32 32" version="1.1" xmlns="http://www.w3.org/2000/svg" xmlns:xlink="http://www.w3.org/1999/xlink">
    <!-- Generator: Sketch 47.1 (45422) - http://www.bohemiancoding.com/sketch -->
    <title>3</title>
    <desc>Created with Sketch.</desc>
    <defs></defs>
    <g id="Web-ParaPlus" stroke="none" stroke-width="1" fill="none" fill-rule="evenodd">
        <g id="ParaPlus---Home" transform="translate(-191.000000, -1519.000000)">
            <g id="MODO-DE-USO" transform="translate(191.000000, 1286.000000)">
                <g id="Texto" transform="translate(0.000000, 118.000000)">
                    <g id="3" transform="translate(0.000000, 115.000000)">
                        <circle id="Oval-Copy-6" fill="#FF4A4A" cx="16" cy="16" r="16"></circle>
                        <path d="M20.7424316,12.3618164 C20.7424316,13.2983445 20.4587431,14.0947233 19.8913574,14.7509766 C19.3239718,15.4072298 18.527593,15.8583972 17.5021973,16.1044922 L17.5021973,16.1660156 C18.7121643,16.316407 19.6281707,16.683835 20.2502441,17.2683105 C20.8723176,17.8527861 21.1833496,18.64062 21.1833496,19.6318359 C21.1833496,21.074226 20.6604056,22.1970175 19.614502,23.0002441 C18.5685983,23.8034708 17.0749609,24.2050781 15.1335449,24.2050781 C13.5065837,24.2050781 12.0642153,23.9350613 10.8063965,23.3950195 L10.8063965,20.6982422 C11.3874541,20.992189 12.0266078,21.2314444 12.723877,21.4160156 C13.4211461,21.6005869 14.1115688,21.6928711 14.795166,21.6928711 C15.8410697,21.6928711 16.6135229,21.5151385 17.1125488,21.159668 C17.6115748,20.8041974 17.861084,20.2334024 17.861084,19.4472656 C17.861084,18.7431605 17.5739775,18.2441421 16.9997559,17.9501953 C16.4255342,17.6562485 15.5095278,17.5092773 14.251709,17.5092773 L13.1135254,17.5092773 L13.1135254,15.0791016 L14.2722168,15.0791016 C15.434332,15.0791016 16.2836887,14.9270035 16.8203125,14.6228027 C17.3569363,14.318602 17.6252441,13.797367 17.6252441,13.059082 C17.6252441,11.9243107 16.9143137,11.3569336 15.4924316,11.3569336 C15.0002417,11.3569336 14.4995143,11.438964 13.9902344,11.6030273 C13.4809545,11.7670907 12.9152863,12.0507792 12.2932129,12.4541016 L10.8269043,10.2700195 C12.1940986,9.28563961 13.8244534,8.79345703 15.7180176,8.79345703 C17.2697831,8.79345703 18.4951127,9.10790701 19.394043,9.73681641 C20.2929732,10.3657258 20.7424316,11.2407171 20.7424316,12.3618164 Z" fill="#FFFFFF"></path>
                    </g>
                </g>
            </g>
        </g>
    </g>
</svg>