<?xml version="1.0" encoding="UTF-8"?>
<svg width="32px" height="32px" viewBox="0 0 32 32" version="1.1" xmlns="http://www.w3.org/2000/svg" xmlns:xlink="http://www.w3.org/1999/xlink">
    <!-- Generator: Sketch 47.1 (45422) - http://www.bohemiancoding.com/sketch -->
    <title>4</title>
    <desc>Created with Sketch.</desc>
    <defs></defs>
    <g id="Web-ParaPlus" stroke="none" stroke-width="1" fill="none" fill-rule="evenodd">
        <g id="ParaPlus---Home" transform="translate(-191.000000, -1574.000000)">
            <g id="MODO-DE-USO" transform="translate(191.000000, 1286.000000)">
                <g id="Texto" transform="translate(0.000000, 118.000000)">
                    <g id="4" transform="translate(0.000000, 170.000000)">
                        <circle id="Oval-Copy-6" fill="#FF4A4A" cx="16" cy="16" r="16"></circle>
                        <path d="M21.6652832,19.8930664 L19.8605957,19.8930664 L19.8605957,23 L16.763916,23 L16.763916,19.8930664 L10.3654785,19.8930664 L10.3654785,17.6884766 L16.9382324,8.00878906 L19.8605957,8.00878906 L19.8605957,17.4321289 L21.6652832,17.4321289 L21.6652832,19.8930664 Z M16.763916,17.4321289 L16.763916,14.8891602 C16.763916,14.4653299 16.7810057,13.8501017 16.8151855,13.043457 C16.8493654,12.2368124 16.8767089,11.7685553 16.8972168,11.6386719 L16.8151855,11.6386719 C16.5622546,12.1992216 16.2580584,12.7460911 15.9025879,13.2792969 L13.154541,17.4321289 L16.763916,17.4321289 Z" fill="#FFFFFF"></path>
                    </g>
                </g>
            </g>
        </g>
    </g>
</svg>