<?xml version="1.0" encoding="UTF-8"?>
<svg width="32px" height="32px" viewBox="0 0 32 32" version="1.1" xmlns="http://www.w3.org/2000/svg" xmlns:xlink="http://www.w3.org/1999/xlink">
    <!-- Generator: Sketch 47.1 (45422) - http://www.bohemiancoding.com/sketch -->
    <title>5</title>
    <desc>Created with Sketch.</desc>
    <defs></defs>
    <g id="Web-ParaPlus" stroke="none" stroke-width="1" fill="none" fill-rule="evenodd">
        <g id="ParaPlus---Home" transform="translate(-191.000000, -1629.000000)">
            <g id="MODO-DE-USO" transform="translate(191.000000, 1286.000000)">
                <g id="Texto" transform="translate(0.000000, 118.000000)">
                    <g id="5" transform="translate(0.000000, 225.000000)">
                        <circle id="Oval-Copy-6" fill="#FF4A4A" cx="16" cy="16" r="16"></circle>
                        <path d="M16.3024902,14.4228516 C17.7517162,14.4228516 18.9052691,14.8295858 19.7631836,15.6430664 C20.621098,16.456547 21.0500488,17.5707937 21.0500488,18.9858398 C21.0500488,20.6606529 20.5339407,21.9492142 19.501709,22.8515625 C18.4694773,23.7539108 16.9929295,24.2050781 15.0720215,24.2050781 C13.4040444,24.2050781 12.0573782,23.9350613 11.0319824,23.3950195 L11.0319824,20.6572266 C11.5720242,20.9443374 12.2009241,21.1784659 12.9187012,21.3596191 C13.6364782,21.5407724 14.3166472,21.6313477 14.9592285,21.6313477 C16.8938085,21.6313477 17.861084,20.8383868 17.861084,19.2524414 C17.861084,17.7416917 16.8596292,16.9863281 14.8566895,16.9863281 C14.494383,16.9863281 14.0944846,17.0222164 13.6569824,17.0939941 C13.2194802,17.1657718 12.864015,17.2426754 12.5905762,17.324707 L11.3293457,16.6479492 L11.8933105,9.00878906 L20.0246582,9.00878906 L20.0246582,11.6953125 L14.6721191,11.6953125 L14.3952637,14.6381836 L14.7541504,14.5664062 C15.1711447,14.4707026 15.6872528,14.4228516 16.3024902,14.4228516 Z" fill="#FFFFFF"></path>
                    </g>
                </g>
            </g>
        </g>
    </g>
</svg>