<?xml version="1.0" encoding="UTF-8"?>
<svg width="32px" height="32px" viewBox="0 0 32 32" version="1.1" xmlns="http://www.w3.org/2000/svg" xmlns:xlink="http://www.w3.org/1999/xlink">
    <!-- Generator: Sketch 47.1 (45422) - http://www.bohemiancoding.com/sketch -->
    <title>6</title>
    <desc>Created with Sketch.</desc>
    <defs></defs>
    <g id="Web-ParaPlus" stroke="none" stroke-width="1" fill="none" fill-rule="evenodd">
        <g id="ParaPlus---Home" transform="translate(-191.000000, -1684.000000)">
            <g id="MODO-DE-USO" transform="translate(191.000000, 1286.000000)">
                <g id="Texto" transform="translate(0.000000, 118.000000)">
                    <g id="6" transform="translate(0.000000, 280.000000)">
                        <circle id="Oval-Copy-6" fill="#FF4A4A" cx="16" cy="16" r="16"></circle>
                        <path d="M10.744873,17.6323242 C10.744873,14.6655125 11.372064,12.4575268 12.6264648,11.0083008 C13.8808656,9.55907479 15.7590207,8.83447266 18.2609863,8.83447266 C19.1154828,8.83447266 19.785398,8.88574167 20.270752,8.98828125 L20.270752,11.5209961 C19.6623505,11.3842767 19.060794,11.315918 18.4660645,11.315918 C17.379145,11.315918 16.4921909,11.4799788 15.8051758,11.8081055 C15.1181606,12.1362321 14.6037615,12.6215788 14.2619629,13.2641602 C13.9201643,13.9067415 13.7185062,14.81933 13.6569824,16.0019531 L13.7902832,16.0019531 C14.4670444,14.8398379 15.5505297,14.2587891 17.0407715,14.2587891 C18.3806219,14.2587891 19.4299278,14.679195 20.1887207,15.5200195 C20.9475136,16.360844 21.3269043,17.5229418 21.3269043,19.0063477 C21.3269043,20.605965 20.8757369,21.8723098 19.9733887,22.8054199 C19.0710404,23.7385301 17.8200764,24.2050781 16.220459,24.2050781 C15.1130316,24.2050781 14.1474651,23.948733 13.3237305,23.4360352 C12.4999959,22.9233373 11.8642601,22.1748096 11.4165039,21.1904297 C10.9687478,20.2060498 10.744873,19.0200265 10.744873,17.6323242 Z M16.1589355,21.6723633 C16.8356967,21.6723633 17.3552228,21.4450706 17.7175293,20.9904785 C18.0798358,20.5358864 18.2609863,19.8881878 18.2609863,19.0473633 C18.2609863,18.3159143 18.0917986,17.7399923 17.753418,17.3195801 C17.4150374,16.8991678 16.9040562,16.6889648 16.220459,16.6889648 C15.5778776,16.6889648 15.0292991,16.8974589 14.574707,17.3144531 C14.1201149,17.7314474 13.8928223,18.2167941 13.8928223,18.7705078 C13.8928223,19.5839884 14.1064432,20.2709933 14.5336914,20.831543 C14.9609396,21.3920926 15.5026823,21.6723633 16.1589355,21.6723633 Z" fill="#FFFFFF"></path>
                    </g>
                </g>
            </g>
        </g>
    </g>
</svg>