<?xml version="1.0" encoding="UTF-8"?>
<svg width="119px" height="79px" viewBox="0 0 119 79" version="1.1" xmlns="http://www.w3.org/2000/svg" xmlns:xlink="http://www.w3.org/1999/xlink">
    <!-- Generator: Sketch 46.2 (44496) - http://www.bohemiancoding.com/sketch -->
    <title>logo2ParaPlus</title>
    <desc>Created with Sketch.</desc>
    <defs>
        <polygon id="path-1" points="0 0.142275789 0 53.7415389 25.9087739 53.7415389 25.9087739 0.142275789"></polygon>
        <polygon id="path-3" points="0.0699993719 21 11.4613753 21 11.4613753 0.347316667 0.0699993719 0.347316667 0.0699993719 21"></polygon>
    </defs>
    <g id="Web-ParaPlus" stroke="none" stroke-width="1" fill="none" fill-rule="evenodd">
        <g id="ParaPlus---Home" transform="translate(-182.000000, -3171.000000)">
            <g id="FOOTER" transform="translate(0.000000, 3135.000000)">
                <g id="logo2ParaPlus" transform="translate(182.000000, 36.000000)">
                    <g id="Group-3">
                        <mask id="mask-2" fill="white">
                            <use xlink:href="#path-1"></use>
                        </mask>
                        <g id="Clip-2"></g>
                        <path d="M9.24164348,23.4884653 L11.7721217,23.4884653 C15.4573391,23.4884653 16.3373826,20.3354337 16.3373826,16.7327811 C16.3373826,12.6043389 15.3471217,9.45130737 11.606513,9.45130737 L9.24164348,9.45130737 L9.24164348,23.4884653 Z M-0.000226086957,0.142275789 L14.3020348,0.142275789 C24.0384696,0.142275789 25.9087739,9.75086526 25.9087739,16.4320863 C25.9087739,26.0406758 22.5536435,32.7974968 13.3123391,32.7974968 L9.24164348,32.7974968 L9.24164348,53.7415389 L-0.000226086957,53.7415389 L-0.000226086957,0.142275789 Z" id="Fill-1" fill="#FEFEFE" mask="url(#mask-2)"></path>
                    </g>
                    <path d="M40.4457944,10.6495466 L40.3373833,10.6495466 L37.128078,34.2551885 L43.7635108,34.2551885 L40.4457944,10.6495466 Z M34.8989436,1 L46.3195551,1 L56,54 L46.5363774,54 L45.1225619,43.9047351 L35.8232325,43.9047351 L34.4636226,54 L25,54 L34.8989436,1 Z" id="Fill-4" fill="#FEFEFE"></path>
                    <path d="M68.3898027,23.343242 L71.2961565,23.343242 C75.0960663,23.343242 76.1021781,19.5582905 76.1021781,16.4405112 C76.1021781,12.4312954 74.9840847,9.75923432 71.2398786,9.75923432 L68.3898027,9.75923432 L68.3898027,23.343242 Z M59,1 L74.7606957,1 C82.7521637,1 85.4908323,7.53289146 85.4908323,14.8065857 C85.4908323,22.5265603 83.143238,26.3126359 78.785143,27.722297 L78.785143,27.8718066 C84.7649616,28.984697 85.1003323,33.9578557 85.2117396,41.0831645 C85.3788507,51.5510791 85.6585176,52.5892147 87,53.3317037 L87,54 L76.8837524,54 C76.1573075,52.2182512 75.8787891,49.2488573 75.8787891,43.237563 C75.8787891,34.0326104 74.9278067,32.1024763 71.9668977,32.1024763 L68.3898027,32.1024763 L68.3898027,54 L59,54 L59,1 Z" id="Fill-6" fill="#FEFEFE"></path>
                    <path d="M103.445794,10.6495466 L103.337383,10.6495466 L100.128637,34.2551885 L106.763511,34.2551885 L103.445794,10.6495466 Z M97.8983848,1 L109.319555,1 L119,54 L109.536377,54 L108.123121,43.9047351 L98.8232325,43.9047351 L97.4636226,54 L88,54 L97.8983848,1 Z" id="Fill-8" fill="#FEFEFE"></path>
                    <path d="M76.4492258,67.5953974 L77.7036797,67.5953974 C78.8208494,67.5953974 79.7223665,66.6913526 80.035841,64.7488552 C80.3298623,62.8855524 79.9374634,61.8208876 78.5262723,61.8208876 L77.3507429,61.8208876 L76.4492258,67.5953974 Z M74.9791194,59 L79.9180102,59 C82.7798545,59 83.3089817,61.8470999 82.8576673,64.6947575 C82.2512831,68.6332922 80.1925783,70.4168428 77.5269334,70.4168428 L76.0179205,70.4168428 L74.8223821,78 L72,78 L74.9791194,59 Z" id="Fill-10" fill="#FEFEFE"></path>
                    <polygon id="Fill-12" fill="#FEFEFE" points="84 78 86.8678438 59 89.5853398 59 87.188336 74.860661 92 74.860661 91.5275548 78"></polygon>
                    <path d="M100.445269,59 L98.2182578,72.6814832 C97.9024963,74.6321971 98.0288009,76.0888991 99.4366202,76.0888991 C100.84444,76.0888991 101.431875,74.6321971 101.747636,72.6814832 L103.974648,59 L107,59 L104.772988,72.6814832 C103.953796,77.682059 101.411023,79 98.9534457,79 C96.4958686,79 94.3308176,77.9296407 95.1929058,72.6814832 L97.4199175,59 L100.445269,59 Z" id="Fill-14" fill="#FEFEFE"></path>
                    <g id="Group-18" transform="translate(106.000000, 58.000000)">
                        <mask id="mask-4" fill="white">
                            <use xlink:href="#path-3"></use>
                        </mask>
                        <g id="Clip-17"></g>
                        <path d="M3.40254,14.4033167 L3.31734,14.9878167 C3.02154,16.8527333 3.23334,18.0503167 4.84074,18.0503167 C5.77194,18.0503167 6.78774,17.2709833 7.04154,15.6009 C7.33794,13.7914 6.74514,13.1240667 4.88334,12.20415 C2.38734,10.9809 1.37154,9.50565 1.90014,6.19348333 C2.53494,2.32423333 4.65054,0.347316667 7.52814,0.347316667 C10.23654,0.347316667 11.95014,1.87856667 11.33694,5.69181667 L11.25234,6.2489 L8.33214,6.2489 C8.62854,4.38398333 8.31114,3.2984 7.14714,3.2984 C5.77194,3.2984 5.22174,4.43998333 5.05254,5.60898333 C4.84074,6.8334 4.98954,7.58473333 6.17394,8.30806667 L8.31114,9.64448333 C10.38534,10.9523167 10.72314,12.4835667 10.34154,14.9044 C9.64314,19.1073167 7.40154,21.0002333 4.10094,21.0002333 C0.65214,21.0002333 -0.36306,18.88565 0.22854,15.2112333 L0.35574,14.4033167 L3.40254,14.4033167 Z" id="Fill-16" fill="#FEFEFE" mask="url(#mask-4)"></path>
                    </g>
                </g>
            </g>
        </g>
    </g>
</svg>