<?xml version="1.0" encoding="UTF-8"?>
<svg width="249px" height="125px" viewBox="0 0 249 125" version="1.1" xmlns="http://www.w3.org/2000/svg" xmlns:xlink="http://www.w3.org/1999/xlink">
    <!-- Generator: Sketch 46.2 (44496) - http://www.bohemiancoding.com/sketch -->
    <title>logoParaPlus</title>
    <desc>Created with Sketch.</desc>
    <defs>
        <polygon id="path-1" points="0 125 124.879195 125 124.879195 0.120805369 0 0.120805369"></polygon>
    </defs>
    <g id="Web-ParaPlus" stroke="none" stroke-width="1" fill="none" fill-rule="evenodd">
        <g id="ParaPlus---Home" transform="translate(-158.000000, -11.000000)">
            <g id="HEADER">
                <g id="logoParaPlus" transform="translate(158.000000, 10.000000)">
                    <text id="De-Cabeza-contra-los" font-family="OpenSans-Extrabold, Open Sans" font-size="15" font-weight="600" line-spacing="15">
                        <tspan x="137" y="62" fill="#FF6262">De Cabeza</tspan>
                        <tspan x="226.897461" y="65.8603516" fill="#FF6262"></tspan>
                        <tspan x="143.335449" y="77.7104492" font-family=".AppleSystemUIFont" font-weight="normal" fill="#FFFFFF">contra los piojos</tspan>
                    </text>
                    <g id="Page-1">
                        <polygon id="Fill-1" fill="#FEFEFE" points="36.6114285 1 0 37.6113056 0 89.3882746 36.6114285 126 88.3885715 126 125 89.3882746 125 37.6113056 88.3885715 1"></polygon>
                        <polygon id="Fill-2" fill="#EC1D24" points="86.3173573 5 38.6826427 5 5 38.9754115 5 87.0241661 38.6826427 121 86.3173573 121 120 87.0241661 120 38.9754115"></polygon>
                        <g id="Group-51">
                            <path d="M26.2729446,56.0728188 L28.1508809,56.0728188 C30.8857802,56.0728188 31.5388842,53.746057 31.5388842,51.0870805 C31.5388842,48.0405201 30.8039849,45.7137584 28.0283977,45.7137584 L26.2729446,45.7137584 L26.2729446,56.0728188 Z M19.4147232,38.8446309 L30.0283977,38.8446309 C37.2540688,38.8446309 38.6420721,45.9352349 38.6420721,50.865604 C38.6420721,57.9562081 36.1517198,62.9419463 29.2939178,62.9419463 L26.2729446,62.9419463 L26.2729446,78.3974832 L19.4147232,78.3974832 L19.4147232,38.8446309 Z" id="Fill-3" fill="#FEFEFE"></path>
                            <path d="M49.4197987,46.046057 L49.3384228,46.046057 L46.9294463,63.6622483 L51.910151,63.6622483 L49.4197987,46.046057 Z M45.2562081,38.8447148 L53.8287752,38.8447148 L61.0951342,78.3975671 L53.9919463,78.3975671 L52.9307047,70.8635906 L45.95,70.8635906 L44.9294463,78.3975671 L37.8262584,78.3975671 L45.2562081,38.8447148 Z" id="Fill-5" fill="#FEFEFE"></path>
                            <path d="M70.157844,55.5187919 L72.2807466,55.5187919 C75.0563339,55.5187919 75.7912332,52.6937081 75.7912332,50.3669463 C75.7912332,47.375755 74.9749581,45.3816275 72.2396393,45.3816275 L70.157844,45.3816275 L70.157844,55.5187919 Z M63.2996225,38.8447148 L74.8113674,38.8447148 C80.6490352,38.8447148 82.6494547,43.7197148 82.6494547,49.1479866 C82.6494547,54.9093121 80.9346896,57.7348154 77.7509648,58.7872483 L77.7509648,58.898406 C82.1188339,59.728943 82.3638003,63.4407718 82.4451762,68.7583054 C82.5676594,76.569547 82.7719379,77.3451342 83.7518037,77.8988255 L83.7518037,78.3975671 L76.3625419,78.3975671 C75.8319211,77.0678691 75.6280621,74.8522651 75.6280621,70.3652685 C75.6280621,63.4961409 74.9338507,62.0557047 72.7706795,62.0557047 L70.157844,62.0557047 L70.157844,78.3975671 L63.2996225,78.3975671 L63.2996225,38.8447148 Z" id="Fill-7" fill="#FEFEFE"></path>
                            <path d="M96.2839765,46.046057 L96.2026007,46.046057 L93.7936242,63.6622483 L98.7743289,63.6622483 L96.2839765,46.046057 Z M92.1199664,38.8447148 L100.692953,38.8447148 L107.959312,78.3975671 L100.856124,78.3975671 L99.7948826,70.8635906 L92.8141779,70.8635906 L91.7936242,78.3975671 L84.6904362,78.3975671 L92.1199664,38.8447148 Z" id="Fill-9" fill="#FEFEFE"></path>
                            <path d="M77.1713507,88.9394295 L78.1180789,88.9394295 C78.9611997,88.9394295 79.6415688,88.2590604 79.878146,86.7980705 C80.1000419,85.3970638 79.8043205,84.5963087 78.7393037,84.5963087 L77.8517198,84.5963087 L77.1713507,88.9394295 Z M76.0618708,82.4746644 L79.7892198,82.4746644 C81.9490352,82.4746644 82.3483641,84.6160235 82.0081795,86.757802 C81.5497064,89.7196309 79.9964346,91.0610738 77.9846896,91.0610738 L76.8458473,91.0610738 L75.9435822,96.7649329 L73.8135487,96.7649329 L76.0618708,82.4746644 Z" id="Fill-11" fill="#FEFEFE"></path>
                            <polygon id="Fill-13" fill="#FEFEFE" points="82.3769715 96.7650168 84.6252936 82.4747483 86.7553272 82.4747483 84.876552 94.4034396 88.6487836 94.4034396 88.2788171 96.7650168"></polygon>
                            <path d="M94.0614933,82.4746225 L92.4935403,92.4419044 C92.2716443,93.8626258 92.3605705,94.9238674 93.3513423,94.9238674 C94.3425336,94.9238674 94.7565436,93.8626258 94.9784396,92.4419044 L96.5463926,82.4746225 L98.6764262,82.4746225 L97.1084732,92.4419044 C96.5317114,96.0845218 94.7418624,97.0450923 93.0111577,97.0450923 C91.2808725,97.0450923 89.7569631,96.2648909 90.3635067,92.4419044 L91.9314597,82.4746225 L94.0614933,82.4746225 Z" id="Fill-15" fill="#FEFEFE"></path>
                            <path d="M101.071728,92.3016779 L101.012584,92.7219799 C100.805369,94.0630034 100.95344,94.9237416 102.077181,94.9237416 C102.728188,94.9237416 103.438339,94.3633389 103.615772,93.1624161 C103.822987,91.8612416 103.408557,91.3813758 102.106963,90.720302 C100.361577,89.8402685 99.6518456,88.7794463 100.021393,86.3977349 C100.465185,83.6154362 101.944211,82.1942953 103.955956,82.1942953 C105.849413,82.1942953 107.047399,83.2953859 106.618708,86.0369966 L106.559564,86.4380034 L104.518037,86.4380034 C104.725252,85.0965604 104.503356,84.3159396 103.689597,84.3159396 C102.728188,84.3159396 102.34354,85.1368289 102.225252,85.9774329 C102.077181,86.8578859 102.181208,87.3985738 103.009228,87.9187081 L104.503356,88.8792785 C105.95302,89.8201342 106.189597,90.9208054 105.923238,92.6619966 C105.434983,95.6842282 103.86745,97.0453859 101.559983,97.0453859 C99.1489094,97.0453859 98.4387584,95.5244128 98.8527685,92.8822148 L98.9416946,92.3016779 L101.071728,92.3016779 Z" id="Fill-17" fill="#FEFEFE"></path>
                            <path d="M29.8634228,28.9952601 L29.8634228,29.6861158 C33.5236577,28.3002097 37.128104,28.3002097 40.6780201,29.6861158 L40.6780201,28.9952601 C37.0442114,27.6601091 33.4397651,27.6601091 29.8634228,28.9952601" id="Fill-19" fill="#FEFEFE"></path>
                            <path d="M28.5028943,24.9404782 C29.5054111,26.5415688 29.8846057,27.9526426 29.8636326,28.7231963 C33.3279782,27.3972735 36.9190017,27.3771393 40.6358641,28.664052 C40.7466023,27.2357802 41.2247903,25.9547399 42.0695889,24.823448 C41.9106124,24.9236997 41.9974413,24.7018037 41.8502097,24.7831795 C39.9223574,26.4618708 38.9219379,25.6288171 38.8166527,23.8012164 C37.6190856,25.8037332 36.4374581,25.6233641 35.2705117,23.2601091 C34.040646,25.6648909 32.7952601,25.8251258 31.5339346,23.738297 C31.2663171,25.5709312 30.3787332,26.1862836 28.7776426,24.9564178 C28.6971057,24.7483641 28.6136326,25.016401 28.5028943,24.9404782" id="Fill-21" fill="#FEFEFE"></path>
                            <path d="M41.5542785,24.5462248 C41.5542785,24.2693792 41.7812081,24.0453859 42.0609899,24.0453859 C42.3407718,24.0453859 42.5677013,24.2693792 42.5677013,24.5462248 C42.5677013,24.8230705 42.3407718,25.0466443 42.0609899,25.0466443 C41.7812081,25.0466443 41.5542785,24.8230705 41.5542785,24.5462248" id="Fill-23" fill="#FEFEFE"></path>
                            <path d="M38.3638842,23.6485738 C38.3638842,23.3721477 38.5908138,23.1481544 38.8705956,23.1481544 C39.150797,23.1481544 39.3777265,23.3721477 39.3777265,23.6485738 C39.3777265,23.9245805 39.150797,24.1489933 38.8705956,24.1489933 C38.5908138,24.1489933 38.3638842,23.9245805 38.3638842,23.6485738" id="Fill-25" fill="#FEFEFE"></path>
                            <path d="M34.813297,23.0408138 C34.813297,22.7639681 35.040646,22.5399748 35.3204279,22.5399748 C35.6002097,22.5399748 35.8271393,22.7639681 35.8271393,23.0408138 C35.8271393,23.3172399 35.6002097,23.5412332 35.3204279,23.5412332 C35.040646,23.5412332 34.813297,23.3172399 34.813297,23.0408138" id="Fill-27" fill="#FEFEFE"></path>
                            <path d="M31.0722315,23.6395973 C31.0722315,23.3631711 31.2995805,23.1391779 31.578943,23.1391779 C31.8591443,23.1391779 32.0856544,23.3631711 32.0856544,23.6395973 C32.0856544,23.9160235 31.8591443,24.1404362 31.578943,24.1404362 C31.2995805,24.1404362 31.0722315,23.9160235 31.0722315,23.6395973" id="Fill-29" fill="#FEFEFE"></path>
                            <path d="M28.0267617,24.6365772 C28.0267617,24.3597315 28.2541107,24.1357383 28.5334732,24.1357383 C28.8136745,24.1357383 29.0401846,24.3597315 29.0401846,24.6365772 C29.0401846,24.9125839 28.8136745,25.1374161 28.5334732,25.1374161 C28.2541107,25.1374161 28.0267617,24.9125839 28.0267617,24.6365772" id="Fill-31" fill="#FEFEFE"></path>
                            <path d="M95.8781879,27.5743708 C95.8781879,27.9271393 95.8387584,28.1939178 95.7594799,28.3751258 C95.6558725,28.6087668 95.4935403,28.7933305 95.2729027,28.9283977 C95.0518456,29.0630453 94.7993289,29.1305789 94.5161913,29.1305789 C94.229698,29.1305789 94.0124161,29.0592701 93.8639262,28.9170721 C93.7150168,28.7748742 93.6407718,28.5970218 93.6407718,28.3835151 C93.6407718,28.2446728 93.6751678,28.117156 93.7431208,28.0034815 C93.8119128,27.8893876 93.9088087,27.8025587 94.0342282,27.7434144 C94.1600671,27.6838507 94.3744128,27.6309983 94.6776846,27.5831795 C95.2129195,27.5005453 95.6143456,27.3994547 95.8823826,27.2811661 L95.8781879,27.5743708 Z M96.6722315,29.0877936 C96.6416107,28.8881292 96.6265101,28.4158138 96.6265101,27.6708473 L96.6265101,26.6024748 C96.6265101,26.2459312 96.6143456,25.9988674 96.5895973,25.861703 C96.5459732,25.6410654 96.4696309,25.4577601 96.3597315,25.3126258 C96.2510906,25.1679111 96.0803691,25.0479446 95.8479866,24.952307 C95.6160235,24.8566695 95.3140101,24.8084312 94.9427852,24.8084312 C94.5686242,24.8084312 94.2393456,24.8646393 93.9553691,24.9770554 C93.6713926,25.089052 93.4541107,25.248448 93.303943,25.4560822 C93.1537752,25.6641359 93.0459732,25.9363674 92.9805369,26.2736158 L93.6994966,26.3835151 C93.7783557,26.0454279 93.9004195,25.8096896 94.0661074,25.6771393 C94.2313758,25.5441695 94.4872483,25.4774748 94.8337248,25.4774748 C95.2049497,25.4774748 95.4847315,25.5676594 95.6734899,25.7488674 C95.8127517,25.8822567 95.8823826,26.1129614 95.8823826,26.4393037 L95.8781879,26.6490352 C95.5971477,26.7564178 95.1596477,26.8486997 94.564849,26.9254614 C94.2729027,26.9644715 94.0547819,27.0047399 93.9104866,27.0462668 C93.7137584,27.1054111 93.5375839,27.1934983 93.3807047,27.3092701 C93.2238255,27.4254614 93.0967282,27.5789849 92.9998322,27.7706795 C92.9029362,27.9623742 92.8551174,28.1746225 92.8551174,28.4065856 C92.8551174,28.8021393 92.9830537,29.1268037 93.2393456,29.3809983 C93.4956376,29.635193 93.8626678,29.7622903 94.3400168,29.7622903 C94.6290268,29.7622903 94.8995805,29.7102768 95.1520973,29.6049916 C95.4041946,29.5001258 95.667198,29.3205956 95.9406879,29.066401 C95.9620805,29.2933305 96.0090604,29.492156 96.0828859,29.6616191 L96.8521812,29.6616191 C96.7619966,29.4783138 96.7024329,29.2874581 96.6722315,29.0877936 L96.6722315,29.0877936 Z" id="Fill-33" fill="#FEFEFE"></path>
                            <path d="M90.6724413,24.8083893 C90.1200084,24.8083893 89.6716023,25.0856544 89.3272232,25.6389262 C89.2429111,25.3767617 89.0981963,25.1729027 88.8930789,25.027349 C88.6875419,24.8813758 88.4249581,24.8083893 88.1036493,24.8083893 C87.8158977,24.8083893 87.5591862,24.8792785 87.3330956,25.0206376 C87.1074245,25.1619966 86.9262164,25.3486577 86.7907299,25.5806208 L86.7907299,24.9094799 L86.1300755,24.9094799 L86.1300755,29.6615772 L86.8662332,29.6615772 L86.8662332,27.1989094 C86.8662332,26.7668624 86.9056628,26.4354866 86.9841023,26.2064597 C87.0633809,25.9770134 87.1904782,25.8025168 87.3662332,25.6829698 C87.5411493,25.5646812 87.7324245,25.504698 87.9392198,25.504698 C88.2110319,25.504698 88.4069211,25.5936242 88.5264681,25.7727349 C88.6460151,25.9514262 88.7059983,26.2194631 88.7059983,26.5772651 L88.7059983,29.6615772 L89.4417366,29.6615772 L89.4417366,26.9040268 C89.4417366,26.4153523 89.5432466,26.0596477 89.7450084,25.8373322 C89.9471896,25.6154362 90.2009648,25.504698 90.5071728,25.504698 C90.6762164,25.504698 90.8238674,25.5479027 90.9497064,25.6343121 C91.0751258,25.7207215 91.1623742,25.8348154 91.2097735,25.976594 C91.2575923,26.1175336 91.2815017,26.3494966 91.2815017,26.6712248 L91.2815017,29.6615772 L92.0172399,29.6615772 L92.0172399,26.4040268 C92.0172399,25.8620805 91.9014681,25.4606544 91.6686661,25.2001678 C91.436703,24.9388423 91.1044883,24.8083893 90.6724413,24.8083893" id="Fill-35" fill="#FEFEFE"></path>
                            <path d="M84.4576762,24.9699664 C84.3146393,25.0777685 84.1581795,25.3000839 83.9895554,25.6373322 L83.9895554,24.9095638 L83.328901,24.9095638 L83.328901,29.6616611 L84.0646393,29.6616611 L84.0646393,27.1784396 C84.0646393,26.8386745 84.1057466,26.5261745 84.1871225,26.2405201 C84.2412332,26.0526007 84.3322567,25.9057886 84.459354,25.8005034 C84.5864513,25.6947987 84.7299077,25.6423658 84.8893037,25.6423658 C85.0675755,25.6423658 85.2458473,25.6973154 85.4245386,25.8072148 L85.686703,25.0635067 C85.4304111,24.8936242 85.1783138,24.8084732 84.9304111,24.8084732 C84.7584312,24.8084732 84.6011326,24.8625839 84.4576762,24.9699664" id="Fill-37" fill="#FEFEFE"></path>
                            <path d="M81.4536074,27.5743708 C81.4536074,27.9271393 81.4141779,28.1939178 81.3348993,28.3751258 C81.2312919,28.6087668 81.0689597,28.7933305 80.8483221,28.9283977 C80.6272651,29.0630453 80.3747483,29.1305789 80.0916107,29.1305789 C79.8051174,29.1305789 79.5878356,29.0592701 79.4393456,28.9170721 C79.2904362,28.7748742 79.2166107,28.5970218 79.2166107,28.3835151 C79.2166107,28.2446728 79.2505872,28.117156 79.3189597,28.0034815 C79.3873322,27.8893876 79.4842282,27.8025587 79.6096477,27.7434144 C79.7354866,27.6838507 79.9498322,27.6309983 80.2535235,27.5831795 C80.7887584,27.5005453 81.1901846,27.3994547 81.4573826,27.2811661 L81.4536074,27.5743708 Z M82.2015101,27.6708473 L82.2015101,26.6024748 C82.2015101,26.2459312 82.1897651,25.9988674 82.1650168,25.861703 C82.1213926,25.6410654 82.0450503,25.4577601 81.9355705,25.3126258 C81.8260906,25.1679111 81.6557886,25.0479446 81.423406,24.952307 C81.191443,24.8566695 80.8894295,24.8084312 80.5182047,24.8084312 C80.1440436,24.8084312 79.8147651,24.8646393 79.5307886,24.9770554 C79.2468121,25.089052 79.0295302,25.248448 78.878943,25.4560822 C78.7291946,25.6641359 78.6209732,25.9363674 78.5559564,26.2736158 L79.2749161,26.3835151 C79.3541946,26.0454279 79.4758389,25.8096896 79.6415268,25.6771393 C79.8067953,25.5441695 80.0626678,25.4774748 80.4091443,25.4774748 C80.7803691,25.4774748 81.060151,25.5676594 81.2484899,25.7488674 C81.3877517,25.8822567 81.4573826,26.1129614 81.4573826,26.4393037 L81.4536074,26.6490352 C81.1725671,26.7564178 80.7346477,26.8486997 80.1402685,26.9254614 C79.8483221,26.9644715 79.6302013,27.0047399 79.485906,27.0462668 C79.2891779,27.1054111 79.1130034,27.1934983 78.9561242,27.3092701 C78.799245,27.4254614 78.6725671,27.5789849 78.5752517,27.7706795 C78.4783557,27.9623742 78.4305369,28.1746225 78.4305369,28.4065856 C78.4305369,28.8021393 78.5584732,29.1268037 78.8147651,29.3809983 C79.071057,29.635193 79.4376678,29.7622903 79.9154362,29.7622903 C80.2044463,29.7622903 80.4754195,29.7102768 80.7275168,29.6049916 C80.9796141,29.5001258 81.242198,29.3205956 81.5161074,29.066401 C81.5375,29.2933305 81.5844799,29.492156 81.6587248,29.6616191 L82.4276007,29.6616191 C82.3374161,29.4783138 82.2778523,29.2874581 82.247651,29.0877936 C82.2170302,28.8881292 82.2015101,28.4158138 82.2015101,27.6708473 L82.2015101,27.6708473 Z" id="Fill-39" fill="#FEFEFE"></path>
                            <path d="M76.8873742,25.0167785 C76.6516359,24.8783557 76.3735319,24.8083054 76.053901,24.8083054 C75.5333473,24.8083054 75.1025587,25.0272651 74.7615352,25.4643456 L74.7615352,23.1057047 L74.0249581,23.1057047 L74.0249581,29.6614933 L74.7615352,29.6614933 L74.7615352,27.0671141 C74.7615352,26.6950503 74.8018037,26.4035235 74.8827601,26.1925336 C74.9641359,25.9807047 75.0996225,25.8133389 75.2908977,25.6900168 C75.4813339,25.5666946 75.6847735,25.5050336 75.900797,25.5050336 C76.190646,25.5050336 76.4146393,25.596057 76.5723574,25.778943 C76.7309144,25.9622483 76.8097735,26.2546141 76.8097735,26.6568792 L76.8097735,29.6614933 L77.5455117,29.6614933 L77.5455117,26.6543624 C77.5455117,26.1895973 77.4951762,25.8347315 77.3932466,25.590604 C77.2917366,25.346896 77.1235319,25.1547819 76.8873742,25.0167785" id="Fill-41" fill="#FEFEFE"></path>
                            <path d="M71.9805789,25.9058305 C71.7653943,26.1143037 71.4017198,26.21875 70.8903943,26.21875 L69.3425755,26.21875 L69.3425755,23.8752097 L70.8736158,23.8752097 C71.2335151,23.8752097 71.4797399,23.8940856 71.6131292,23.9330956 C71.8199245,23.9955956 71.9864513,24.1243708 72.1131292,24.3198406 C72.239807,24.5153104 72.3027265,24.7502097 72.3027265,25.0245386 C72.3027265,25.4033138 72.1957634,25.6969379 71.9805789,25.9058305 M72.4604446,23.4737836 C72.2616191,23.3236158 72.0145554,23.2221057 71.7200923,23.167995 C71.5107802,23.1264681 71.2066695,23.1059144 70.808599,23.1059144 L68.5481124,23.1059144 L68.5481124,29.661703 L69.3425755,29.661703 L69.3425755,26.9880453 L70.8790688,26.9880453 C71.7263842,26.9880453 72.3123742,26.7955117 72.6361997,26.4100252 C72.9604446,26.0249581 73.1227768,25.553901 73.1227768,24.997693 C73.1227768,24.673448 73.0619547,24.3760487 72.9407299,24.1050755 C72.819505,23.8341023 72.6592701,23.6239513 72.4604446,23.4737836" id="Fill-43" fill="#FEFEFE"></path>
                            <mask id="mask-2" fill="white">
                                <use xlink:href="#path-1"></use>
                            </mask>
                            <g id="Clip-46"></g>
                            <polygon id="Fill-45" fill="#FEFEFE" mask="url(#mask-2)" points="64.2583893 29.6619128 64.9941275 29.6619128 64.9941275 23.1061242 64.2583893 23.1061242"></polygon>
                            <path d="M62.3913591,27.5743708 C62.3913591,27.9271393 62.3519295,28.1939178 62.272651,28.3751258 C62.1694631,28.6087668 62.0071309,28.7933305 61.7860738,28.9283977 C61.5650168,29.0630453 61.3129195,29.1305789 61.0293624,29.1305789 C60.7432886,29.1305789 60.5255872,29.0592701 60.3770973,28.9170721 C60.2281879,28.7748742 60.1543624,28.5970218 60.1543624,28.3835151 C60.1543624,28.2446728 60.1883389,28.117156 60.2567114,28.0034815 C60.3246644,27.8893876 60.4219799,27.8025587 60.5478188,27.7434144 C60.6732383,27.6838507 60.8880034,27.6309983 61.1904362,27.5831795 C61.7265101,27.5005453 62.1275168,27.3994547 62.3955537,27.2811661 L62.3913591,27.5743708 Z M63.1396812,27.6708473 L63.1396812,26.6024748 C63.1396812,26.2459312 63.1275168,25.9988674 63.1031879,25.861703 C63.0587248,25.6410654 62.982802,25.4577601 62.8733221,25.3126258 C62.7642617,25.1679111 62.5939597,25.0479446 62.3615772,24.952307 C62.1296141,24.8566695 61.8276007,24.8084312 61.4559564,24.8084312 C61.0817953,24.8084312 60.7525168,24.8646393 60.4685403,24.9770554 C60.1845638,25.089052 59.9672819,25.248448 59.8171141,25.4560822 C59.6669463,25.6641359 59.5591443,25.9363674 59.4937081,26.2736158 L60.2126678,26.3835151 C60.2919463,26.0454279 60.4140101,25.8096896 60.5792785,25.6771393 C60.744547,25.5441695 61.0004195,25.4774748 61.346896,25.4774748 C61.7185403,25.4774748 61.9983221,25.5676594 62.1862416,25.7488674 C62.3259228,25.8822567 62.3955537,26.1129614 62.3955537,26.4393037 L62.3913591,26.6490352 C62.1107383,26.7564178 61.6728188,26.8486997 61.0784396,26.9254614 C60.7864933,26.9644715 60.567953,27.0047399 60.4236577,27.0462668 C60.2269295,27.1054111 60.050755,27.1934983 59.8938758,27.3092701 C59.7369966,27.4254614 59.6107383,27.5789849 59.5134228,27.7706795 C59.4165268,27.9623742 59.3682886,28.1746225 59.3682886,28.4065856 C59.3682886,28.8021393 59.4966443,29.1268037 59.7525168,29.3809983 C60.0088087,29.635193 60.3758389,29.7622903 60.8527685,29.7622903 C61.142198,29.7622903 61.4131711,29.7102768 61.6652685,29.6049916 C61.9177852,29.5001258 62.1803691,29.3205956 62.4542785,29.066401 C62.4752517,29.2933305 62.5222315,29.492156 62.5964765,29.6616191 L63.3653523,29.6616191 C63.2755872,29.4783138 63.215604,29.2874581 63.1854027,29.0877936 C63.1552013,28.8881292 63.1396812,28.4158138 63.1396812,27.6708473 L63.1396812,27.6708473 Z" id="Fill-47" fill="#FEFEFE" mask="url(#mask-2)"></path>
                            <path d="M57.3309564,27.6806628 C57.2135067,28.0321728 57.1128356,28.3891359 57.0276846,28.7498742 C56.9345638,28.3660654 56.829698,28.0002936 56.7118289,27.6525587 L55.8057886,24.9096896 L55.0197148,24.9096896 L56.6669463,29.677307 L56.6019295,29.8744547 C56.4979027,30.1940856 56.4228188,30.3941695 56.3762584,30.4751258 C56.3133389,30.5820889 56.2332215,30.6659815 56.1350671,30.7259648 C56.0369128,30.7855285 55.9060403,30.8153104 55.7420302,30.8153104 C55.6220638,30.8153104 55.4819631,30.791401 55.3204698,30.7440017 L55.4043624,31.4881292 C55.5792785,31.552307 55.7378356,31.5846057 55.8791946,31.5846057 C56.1145134,31.5846057 56.3162752,31.5229446 56.4857383,31.3996225 C56.6552013,31.2763003 56.8053691,31.0829279 56.9362416,30.8182466 C57.0348154,30.6223574 57.1728188,30.2641359 57.3502517,29.7448406 L58.9903523,24.9096896 L58.2562919,24.9096896 L57.3309564,27.6806628 Z" id="Fill-48" fill="#FEFEFE" mask="url(#mask-2)"></path>
                            <path d="M53.4527265,28.648448 C53.2098574,28.9517198 52.9057466,29.103146 52.5403943,29.103146 C52.1716862,29.103146 51.8658977,28.9521393 51.6226091,28.6505453 C51.3797399,28.3485319 51.2585151,27.8942534 51.2585151,27.2877097 C51.2585151,26.6811661 51.3797399,26.228146 51.6226091,25.9273909 C51.8658977,25.6274748 52.1716862,25.477307 52.5403943,25.477307 C52.9028104,25.477307 53.2065017,25.6283138 53.4510487,25.9294883 C53.6951762,26.2315017 53.8172399,26.6748742 53.8172399,27.2608641 C53.8172399,27.8825084 53.6960151,28.3447567 53.4527265,28.648448 M52.5403943,24.8082634 C52.0034815,24.8082634 51.5487836,24.9840185 51.1758809,25.3355285 C50.7287332,25.7579279 50.5059983,26.4080956 50.5059983,27.2856124 C50.5059983,28.085948 50.6926594,28.699203 51.0672399,29.1241191 C51.4418205,29.5498742 51.9325923,29.7625419 52.5403943,29.7625419 C52.91875,29.7625419 53.2677433,29.6660654 53.5877936,29.472693 C53.907844,29.2784815 54.1511326,29.0079279 54.3189178,28.6576762 C54.4862836,28.3082634 54.5701762,27.8288171 54.5701762,27.2184983 C54.5701762,26.4659815 54.3805789,25.8762164 54.0022232,25.449203 C53.6238674,25.0221896 53.1364513,24.8082634 52.5403943,24.8082634" id="Fill-49" fill="#FEFEFE" mask="url(#mask-2)"></path>
                            <path d="M47.3421141,25.9989933 L45.6407718,25.9989933 L45.6407718,23.8286913 L47.5338087,23.8286913 C47.9755034,23.8286913 48.2993289,23.9285235 48.5031879,24.1290268 C48.7083054,24.3286913 48.8102349,24.5833054 48.8102349,24.8937081 C48.8102349,25.1055369 48.757802,25.3018456 48.6520973,25.4822148 C48.5468121,25.6625839 48.3920302,25.7938758 48.1890101,25.8760906 C47.9859899,25.9583054 47.7036913,25.9989933 47.3421141,25.9989933 M48.4230705,27.0031879 C48.3140101,26.8958054 48.1550336,26.786745 47.945302,26.6768456 C48.519547,26.5900168 48.9436242,26.3878356 49.217953,26.0686242 C49.4927013,25.7498322 49.6302852,25.3580537 49.6302852,24.8932886 C49.6302852,24.5329698 49.5472315,24.2036913 49.3815436,23.9058725 C49.2154362,23.6076342 48.9939597,23.4 48.7166946,23.2825503 C48.4390101,23.1646812 48.0338087,23.1059564 47.5010906,23.1059564 L44.8467282,23.1059564 L44.8467282,29.661745 L45.6407718,29.661745 L45.6407718,26.7498322 L46.5589765,26.7498322 C46.7624161,26.7498322 46.9096477,26.7603188 46.9994128,26.7812919 C47.1214765,26.8135906 47.2422819,26.8714765 47.3605705,26.9545302 C47.4784396,27.0380034 47.6126678,27.183557 47.7619966,27.3928691 C47.9113255,27.6017617 48.1017617,27.9029362 48.3328859,28.2968121 L49.1239933,29.661745 L50.1139262,29.661745 L49.0782718,27.8756711 C48.8727349,27.5266779 48.6541946,27.2355705 48.4230705,27.0031879" id="Fill-50" fill="#FEFEFE" mask="url(#mask-2)"></path>
                        </g>
                    </g>
                </g>
            </g>
        </g>
    </g>
</svg>