<?xml version="1.0" encoding="UTF-8"?>
<svg width="255px" height="125px" viewBox="0 0 255 125" version="1.1" xmlns="http://www.w3.org/2000/svg" xmlns:xlink="http://www.w3.org/1999/xlink">
    <!-- Generator: Sketch 47.1 (45422) - http://www.bohemiancoding.com/sketch -->
    <title>logoParaPlus</title>
    <desc>Created with Sketch.</desc>
    <defs>
        <polygon id="path-1" points="0 125 124.879195 125 124.879195 0.120805369 0 0.120805369"></polygon>
    </defs>
    <g id="Page-1" stroke="none" stroke-width="1" fill="none" fill-rule="evenodd">
        <g id="HEADER" transform="translate(-158.000000, -11.000000)">
            <g id="logoParaPlus" transform="translate(158.000000, 10.000000)">
                <path d="M147.246582,54.4189453 C147.246582,56.2060636 146.754644,57.583003 145.770752,58.5498047 C144.78686,59.5166064 143.403818,60 141.621582,60 L138.157227,60 L138.157227,49.2919922 L141.863281,49.2919922 C143.58204,49.2919922 144.908931,49.7314409 145.843994,50.6103516 C146.779057,51.4892622 147.246582,52.7587808 147.246582,54.4189453 Z M144.243652,54.5214844 C144.243652,53.5400342 144.049562,52.8125024 143.661377,52.3388672 C143.273191,51.865232 142.683598,51.628418 141.892578,51.628418 L141.050293,51.628418 L141.050293,57.6269531 L141.694824,57.6269531 C142.573735,57.6269531 143.21826,57.3718287 143.628418,56.8615723 C144.038576,56.3513158 144.243652,55.5712943 144.243652,54.5214844 Z M155.522949,60 L149.165527,60 L149.165527,49.2919922 L155.522949,49.2919922 L155.522949,51.6137695 L152.058594,51.6137695 L152.058594,53.2983398 L155.266602,53.2983398 L155.266602,55.6201172 L152.058594,55.6201172 L152.058594,57.6416016 L155.522949,57.6416016 L155.522949,60 Z M166.0625,51.5112305 C165.37402,51.5112305 164.836916,51.7932101 164.451172,52.3571777 C164.065428,52.9211454 163.872559,53.6987255 163.872559,54.6899414 C163.872559,56.7504986 164.656242,57.7807617 166.223633,57.7807617 C166.697268,57.7807617 167.156248,57.7148444 167.600586,57.5830078 C168.044924,57.4511712 168.491697,57.2924814 168.940918,57.1069336 L168.940918,59.5532227 C168.047359,59.9487324 167.036627,60.1464844 165.908691,60.1464844 C164.292472,60.1464844 163.053471,59.6777391 162.19165,58.7402344 C161.32983,57.8027297 160.898926,56.4477628 160.898926,54.675293 C160.898926,53.566889 161.107664,52.5927776 161.525146,51.7529297 C161.942629,50.9130817 162.543209,50.2673362 163.326904,49.8156738 C164.1106,49.3640114 165.032221,49.1381836 166.091797,49.1381836 C167.249029,49.1381836 168.354975,49.3896459 169.409668,49.8925781 L168.523438,52.1704102 C168.127928,51.9848624 167.732424,51.8286139 167.336914,51.7016602 C166.941404,51.5747064 166.516604,51.5112305 166.0625,51.5112305 Z M177.598145,60 L177.070801,57.9931641 L173.591797,57.9931641 L173.049805,60 L169.871094,60 L173.364746,49.2480469 L177.224609,49.2480469 L180.762207,60 L177.598145,60 Z M176.470215,55.6201172 L176.008789,53.8623047 C175.901367,53.4716777 175.770753,52.9663117 175.616943,52.3461914 C175.463134,51.7260711 175.361817,51.2817396 175.312988,51.0131836 C175.269043,51.2622083 175.182374,51.6723604 175.052979,52.2436523 C174.923583,52.8149443 174.636721,53.9404213 174.192383,55.6201172 L176.470215,55.6201172 Z M181.919434,49.2919922 L185.654785,49.2919922 C187.109871,49.2919922 188.190182,49.5080545 188.895752,49.9401855 C189.601322,50.3723166 189.954102,51.0449173 189.954102,51.9580078 C189.954102,52.5585968 189.800295,53.0712869 189.492676,53.4960938 C189.185057,53.9209006 188.779788,54.1943353 188.276855,54.3164062 L188.276855,54.3896484 C188.940921,54.5654306 189.421874,54.8583964 189.719727,55.2685547 C190.01758,55.678713 190.166504,56.2109342 190.166504,56.8652344 C190.166504,57.8369189 189.801517,58.6022921 189.071533,59.161377 C188.341549,59.7204618 187.346686,60 186.086914,60 L181.919434,60 L181.919434,49.2919922 Z M184.8125,53.4008789 L185.684082,53.4008789 C186.099123,53.4008789 186.420165,53.3154305 186.647217,53.1445312 C186.874269,52.973632 186.987793,52.7197282 186.987793,52.3828125 C186.987793,51.7822236 186.533696,51.4819336 185.625488,51.4819336 L184.8125,51.4819336 L184.8125,53.4008789 Z M184.8125,55.5175781 L184.8125,57.7661133 L185.830566,57.7661133 C186.733891,57.7661133 187.185547,57.3852577 187.185547,56.6235352 C187.185547,56.2670881 187.064698,55.9936533 186.822998,55.8032227 C186.581298,55.612792 186.230959,55.5175781 185.771973,55.5175781 L184.8125,55.5175781 Z M198.384277,60 L192.026855,60 L192.026855,49.2919922 L198.384277,49.2919922 L198.384277,51.6137695 L194.919922,51.6137695 L194.919922,53.2983398 L198.12793,53.2983398 L198.12793,55.6201172 L194.919922,55.6201172 L194.919922,57.6416016 L198.384277,57.6416016 L198.384277,60 Z M207.891113,60 L199.548828,60 L199.548828,58.2128906 L204.185059,51.628418 L199.658691,51.628418 L199.658691,49.2919922 L207.773926,49.2919922 L207.773926,51.0717773 L203.137695,57.6635742 L207.891113,57.6635742 L207.891113,60 Z M215.991699,60 L215.464355,57.9931641 L211.985352,57.9931641 L211.443359,60 L208.264648,60 L211.758301,49.2480469 L215.618164,49.2480469 L219.155762,60 L215.991699,60 Z M214.86377,55.6201172 L214.402344,53.8623047 C214.294921,53.4716777 214.164307,52.9663117 214.010498,52.3461914 C213.856689,51.7260711 213.755371,51.2817396 213.706543,51.0131836 C213.662597,51.2622083 213.575928,51.6723604 213.446533,52.2436523 C213.317138,52.8149443 213.030276,53.9404213 212.585938,55.6201172 L214.86377,55.6201172 Z" id="De-Cabeza" fill="#FF6262"></path>
                <path d="M141.49707,74.1464844 C140.271478,74.1464844 139.340091,73.7888219 138.702881,73.0734863 C138.065671,72.3581507 137.74707,71.3315497 137.74707,69.9936523 C137.74707,68.6313408 138.080319,67.583988 138.746826,66.8515625 C139.413333,66.119137 140.376459,65.7529297 141.63623,65.7529297 C142.490727,65.7529297 143.259762,65.9116195 143.943359,66.2290039 L143.42334,67.6132812 C142.695797,67.3300767 142.095217,67.1884766 141.621582,67.1884766 C140.220208,67.1884766 139.519531,68.118643 139.519531,69.9790039 C139.519531,70.8872116 139.69409,71.5695778 140.043213,72.026123 C140.392336,72.4826683 140.903805,72.7109375 141.577637,72.7109375 C142.344242,72.7109375 143.069333,72.5205097 143.75293,72.1396484 L143.75293,73.6411133 C143.445311,73.8217782 143.116945,73.9511715 142.767822,74.0292969 C142.418699,74.1074223 141.99512,74.1464844 141.49707,74.1464844 Z M152.842285,69.9350586 C152.842285,71.2583074 152.502933,72.2910119 151.824219,73.0332031 C151.145504,73.7753943 150.20069,74.1464844 148.989746,74.1464844 C148.232906,74.1464844 147.563968,73.9755876 146.98291,73.6337891 C146.401853,73.2919905 145.95508,72.8012727 145.642578,72.1616211 C145.330077,71.5219695 145.173828,70.7797894 145.173828,69.9350586 C145.173828,68.6215755 145.510739,67.5961951 146.18457,66.8588867 C146.858402,66.1215783 147.808099,65.7529297 149.033691,65.7529297 C150.205572,65.7529297 151.133297,66.1301232 151.816895,66.8845215 C152.500492,67.6389198 152.842285,68.6557553 152.842285,69.9350586 Z M146.946289,69.9350586 C146.946289,71.8051851 147.6372,72.7402344 149.019043,72.7402344 C150.386237,72.7402344 151.069824,71.8051851 151.069824,69.9350586 C151.069824,68.0844634 150.381355,67.1591797 149.004395,67.1591797 C148.281735,67.1591797 147.758058,67.3984351 147.43335,67.8769531 C147.108641,68.3554711 146.946289,69.0414994 146.946289,69.9350586 Z M161.946289,74 L160.217773,74 L160.217773,69.0195312 C160.217773,68.3945281 160.092042,67.9282242 159.840576,67.6206055 C159.58911,67.3129867 159.189944,67.1591797 158.643066,67.1591797 C157.915524,67.1591797 157.383302,67.3740213 157.046387,67.8037109 C156.709471,68.2334006 156.541016,68.9536082 156.541016,69.9643555 L156.541016,74 L154.819824,74 L154.819824,65.8994141 L156.16748,65.8994141 L156.40918,66.9614258 L156.49707,66.9614258 C156.741212,66.5756817 157.087888,66.2778331 157.537109,66.0678711 C157.98633,65.8579091 158.484372,65.7529297 159.03125,65.7529297 C160.974619,65.7529297 161.946289,66.7416893 161.946289,68.7192383 L161.946289,74 Z M167.358887,72.7548828 C167.778811,72.7548828 168.198728,72.6889655 168.618652,72.5571289 L168.618652,73.8535156 C168.428222,73.9365239 168.182863,74.0061032 167.882568,74.0622559 C167.582274,74.1184085 167.270998,74.1464844 166.94873,74.1464844 C165.317863,74.1464844 164.502441,73.287118 164.502441,71.5683594 L164.502441,67.203125 L163.396484,67.203125 L163.396484,66.4414062 L164.583008,65.8115234 L165.168945,64.0976562 L166.230957,64.0976562 L166.230957,65.8994141 L168.538086,65.8994141 L168.538086,67.203125 L166.230957,67.203125 L166.230957,71.5390625 C166.230957,71.9541036 166.334716,72.2604971 166.542236,72.458252 C166.749757,72.6560068 167.021971,72.7548828 167.358887,72.7548828 Z M174.346191,65.7529297 C174.692873,65.7529297 174.978515,65.7773435 175.203125,65.8261719 L175.034668,67.4301758 C174.790526,67.3715817 174.536622,67.3422852 174.272949,67.3422852 C173.584469,67.3422852 173.026613,67.5668923 172.599365,68.0161133 C172.172117,68.4653343 171.958496,69.0488245 171.958496,69.7666016 L171.958496,74 L170.237305,74 L170.237305,65.8994141 L171.584961,65.8994141 L171.812012,67.3276367 L171.899902,67.3276367 C172.168458,66.8442359 172.518797,66.4609389 172.950928,66.1777344 C173.383059,65.8945298 173.848142,65.7529297 174.346191,65.7529297 Z M181.472656,74 L181.128418,72.8720703 L181.069824,72.8720703 C180.679197,73.3652368 180.286135,73.7009268 179.890625,73.8791504 C179.495115,74.0573739 178.987308,74.1464844 178.367188,74.1464844 C177.571285,74.1464844 176.949953,73.9316428 176.503174,73.5019531 C176.056394,73.0722635 175.833008,72.4643594 175.833008,71.6782227 C175.833008,70.8432575 176.143063,70.213381 176.763184,69.7885742 C177.383304,69.3637674 178.328119,69.1318361 179.597656,69.0927734 L180.996582,69.0488281 L180.996582,68.6166992 C180.996582,68.0991185 180.875734,67.7121595 180.634033,67.4558105 C180.392333,67.1994616 180.017581,67.0712891 179.509766,67.0712891 C179.094724,67.0712891 178.696779,67.1323236 178.315918,67.2543945 C177.935057,67.3764655 177.568849,67.520507 177.217285,67.6865234 L176.660645,66.4560547 C177.1001,66.2265614 177.581052,66.0520026 178.103516,65.932373 C178.625979,65.8127435 179.119138,65.7529297 179.583008,65.7529297 C180.613286,65.7529297 181.390867,65.9775368 181.915771,66.4267578 C182.440676,66.8759788 182.703125,67.5815382 182.703125,68.543457 L182.703125,74 L181.472656,74 Z M178.90918,72.828125 C179.534183,72.828125 180.035887,72.6535662 180.414307,72.3044434 C180.792727,71.9553205 180.981934,71.4658235 180.981934,70.8359375 L180.981934,70.1328125 L179.941895,70.1767578 C179.131344,70.2060548 178.54175,70.3415515 178.173096,70.583252 C177.804442,70.8249524 177.620117,71.1948217 177.620117,71.6928711 C177.620117,72.054201 177.727538,72.3337392 177.942383,72.5314941 C178.157228,72.729249 178.47949,72.828125 178.90918,72.828125 Z M190.723145,74 L189.001953,74 L189.001953,62.6035156 L190.723145,62.6035156 L190.723145,74 Z M200.369141,69.9350586 C200.369141,71.2583074 200.029789,72.2910119 199.351074,73.0332031 C198.67236,73.7753943 197.727545,74.1464844 196.516602,74.1464844 C195.759762,74.1464844 195.090823,73.9755876 194.509766,73.6337891 C193.928708,73.2919905 193.481935,72.8012727 193.169434,72.1616211 C192.856932,71.5219695 192.700684,70.7797894 192.700684,69.9350586 C192.700684,68.6215755 193.037594,67.5961951 193.711426,66.8588867 C194.385257,66.1215783 195.334955,65.7529297 196.560547,65.7529297 C197.732428,65.7529297 198.660153,66.1301232 199.34375,66.8845215 C200.027347,67.6389198 200.369141,68.6557553 200.369141,69.9350586 Z M194.473145,69.9350586 C194.473145,71.8051851 195.164056,72.7402344 196.545898,72.7402344 C197.913093,72.7402344 198.59668,71.8051851 198.59668,69.9350586 C198.59668,68.0844634 197.90821,67.1591797 196.53125,67.1591797 C195.80859,67.1591797 195.284914,67.3984351 194.960205,67.8769531 C194.635496,68.3554711 194.473145,69.0414994 194.473145,69.9350586 Z M207.788574,71.6928711 C207.788574,72.4838907 207.500491,73.0905741 206.924316,73.5129395 C206.348142,73.9353048 205.522955,74.1464844 204.44873,74.1464844 C203.369624,74.1464844 202.502933,73.9829118 201.848633,73.6557617 L201.848633,72.1689453 C202.800786,72.6084006 203.687008,72.828125 204.507324,72.828125 C205.5669,72.828125 206.09668,72.508304 206.09668,71.8686523 C206.09668,71.6635732 206.038087,71.4926765 205.920898,71.355957 C205.80371,71.2192376 205.610841,71.0776375 205.342285,70.9311523 C205.073729,70.7846672 204.700198,70.6186533 204.22168,70.4331055 C203.289058,70.0717755 202.657961,69.710451 202.328369,69.3491211 C201.998778,68.9877912 201.833984,68.5190458 201.833984,67.9428711 C201.833984,67.2495083 202.113523,66.7111836 202.672607,66.3278809 C203.231692,65.9445782 203.992183,65.7529297 204.954102,65.7529297 C205.906255,65.7529297 206.807125,65.9457989 207.656738,66.331543 L207.100098,67.6279297 C206.22607,67.2665998 205.491214,67.0859375 204.895508,67.0859375 C203.9873,67.0859375 203.533203,67.344724 203.533203,67.8623047 C203.533203,68.1162122 203.65161,68.3310538 203.888428,68.5068359 C204.125245,68.6826181 204.641598,68.9243149 205.4375,69.2319336 C206.106449,69.490724 206.592284,69.727538 206.89502,69.9423828 C207.197755,70.1572276 207.422363,70.4050279 207.568848,70.685791 C207.715333,70.9665541 207.788574,71.3022441 207.788574,71.6928711 Z M217.654297,74.1464844 C216.628901,74.1464844 215.833011,73.7778357 215.266602,73.0405273 L215.164062,73.0405273 C215.232422,73.7241245 215.266602,74.1391594 215.266602,74.2856445 L215.266602,77.6035156 L213.54541,77.6035156 L213.54541,65.8994141 L214.937012,65.8994141 C214.976074,66.050782 215.05664,66.4121065 215.178711,66.9833984 L215.266602,66.9833984 C215.803714,66.1630818 216.60937,65.7529297 217.683594,65.7529297 C218.694341,65.7529297 219.481687,66.119137 220.045654,66.8515625 C220.609622,67.583988 220.891602,68.6118098 220.891602,69.9350586 C220.891602,71.2583074 220.604739,72.2910119 220.031006,73.0332031 C219.457273,73.7753943 218.665044,74.1464844 217.654297,74.1464844 Z M217.236816,67.1591797 C216.553219,67.1591797 216.053957,67.359373 215.739014,67.7597656 C215.424071,68.1601583 215.266602,68.7998003 215.266602,69.6787109 L215.266602,69.9350586 C215.266602,70.9213917 215.42285,71.6354958 215.735352,72.0773926 C216.047853,72.5192893 216.558102,72.7402344 217.266113,72.7402344 C217.861819,72.7402344 218.320799,72.4960962 218.643066,72.0078125 C218.965334,71.5195288 219.126465,70.823735 219.126465,69.9204102 C219.126465,69.0122025 218.966554,68.3249535 218.646729,67.8586426 C218.326903,67.3923317 217.856937,67.1591797 217.236816,67.1591797 Z M224.612305,74 L222.891113,74 L222.891113,65.8994141 L224.612305,65.8994141 L224.612305,74 Z M222.788574,63.753418 C222.788574,63.4457992 222.872802,63.2089852 223.04126,63.0429688 C223.209718,62.8769523 223.450194,62.7939453 223.762695,62.7939453 C224.065431,62.7939453 224.301025,62.8769523 224.469482,63.0429688 C224.63794,63.2089852 224.722168,63.4457992 224.722168,63.753418 C224.722168,64.0463882 224.63794,64.2770988 224.469482,64.4455566 C224.301025,64.6140145 224.065431,64.6982422 223.762695,64.6982422 C223.450194,64.6982422 223.209718,64.6140145 223.04126,64.4455566 C222.872802,64.2770988 222.788574,64.0463882 222.788574,63.753418 Z M234.258301,69.9350586 C234.258301,71.2583074 233.918949,72.2910119 233.240234,73.0332031 C232.56152,73.7753943 231.616705,74.1464844 230.405762,74.1464844 C229.648922,74.1464844 228.979983,73.9755876 228.398926,73.6337891 C227.817868,73.2919905 227.371095,72.8012727 227.058594,72.1616211 C226.746092,71.5219695 226.589844,70.7797894 226.589844,69.9350586 C226.589844,68.6215755 226.926754,67.5961951 227.600586,66.8588867 C228.274417,66.1215783 229.224115,65.7529297 230.449707,65.7529297 C231.621588,65.7529297 232.549313,66.1301232 233.23291,66.8845215 C233.916507,67.6389198 234.258301,68.6557553 234.258301,69.9350586 Z M228.362305,69.9350586 C228.362305,71.8051851 229.053216,72.7402344 230.435059,72.7402344 C231.802253,72.7402344 232.48584,71.8051851 232.48584,69.9350586 C232.48584,68.0844634 231.79737,67.1591797 230.42041,67.1591797 C229.69775,67.1591797 229.174074,67.3984351 228.849365,67.8769531 C228.524657,68.3554711 228.362305,69.0414994 228.362305,69.9350586 Z M235.408203,77.6035156 C234.890622,77.6035156 234.460939,77.5424811 234.119141,77.4204102 L234.119141,76.0581055 C234.451174,76.1459965 234.790526,76.1899414 235.137207,76.1899414 C235.869633,76.1899414 236.23584,75.7749065 236.23584,74.9448242 L236.23584,65.8994141 L237.957031,65.8994141 L237.957031,75.0620117 C237.957031,75.8969768 237.738528,76.5292947 237.301514,76.9589844 C236.8645,77.388674 236.233403,77.6035156 235.408203,77.6035156 Z M236.133301,63.753418 C236.133301,63.4457992 236.217528,63.2089852 236.385986,63.0429688 C236.554444,62.8769523 236.79492,62.7939453 237.107422,62.7939453 C237.410158,62.7939453 237.645751,62.8769523 237.814209,63.0429688 C237.982667,63.2089852 238.066895,63.4457992 238.066895,63.753418 C238.066895,64.0463882 237.982667,64.2770988 237.814209,64.4455566 C237.645751,64.6140145 237.410158,64.6982422 237.107422,64.6982422 C236.79492,64.6982422 236.554444,64.6140145 236.385986,64.4455566 C236.217528,64.2770988 236.133301,64.0463882 236.133301,63.753418 Z M247.603027,69.9350586 C247.603027,71.2583074 247.263675,72.2910119 246.584961,73.0332031 C245.906247,73.7753943 244.961432,74.1464844 243.750488,74.1464844 C242.993649,74.1464844 242.32471,73.9755876 241.743652,73.6337891 C241.162595,73.2919905 240.715822,72.8012727 240.40332,72.1616211 C240.090819,71.5219695 239.93457,70.7797894 239.93457,69.9350586 C239.93457,68.6215755 240.271481,67.5961951 240.945312,66.8588867 C241.619144,66.1215783 242.568842,65.7529297 243.794434,65.7529297 C244.966314,65.7529297 245.89404,66.1301232 246.577637,66.8845215 C247.261234,67.6389198 247.603027,68.6557553 247.603027,69.9350586 Z M241.707031,69.9350586 C241.707031,71.8051851 242.397942,72.7402344 243.779785,72.7402344 C245.146979,72.7402344 245.830566,71.8051851 245.830566,69.9350586 C245.830566,68.0844634 245.142097,67.1591797 243.765137,67.1591797 C243.042477,67.1591797 242.5188,67.3984351 242.194092,67.8769531 C241.869383,68.3554711 241.707031,69.0414994 241.707031,69.9350586 Z M255.022461,71.6928711 C255.022461,72.4838907 254.734378,73.0905741 254.158203,73.5129395 C253.582028,73.9353048 252.756841,74.1464844 251.682617,74.1464844 C250.60351,74.1464844 249.73682,73.9829118 249.08252,73.6557617 L249.08252,72.1689453 C250.034673,72.6084006 250.920894,72.828125 251.741211,72.828125 C252.800787,72.828125 253.330566,72.508304 253.330566,71.8686523 C253.330566,71.6635732 253.271973,71.4926765 253.154785,71.355957 C253.037597,71.2192376 252.844728,71.0776375 252.576172,70.9311523 C252.307616,70.7846672 251.934084,70.6186533 251.455566,70.4331055 C250.522945,70.0717755 249.891847,69.710451 249.562256,69.3491211 C249.232664,68.9877912 249.067871,68.5190458 249.067871,67.9428711 C249.067871,67.2495083 249.347409,66.7111836 249.906494,66.3278809 C250.465579,65.9445782 251.226069,65.7529297 252.187988,65.7529297 C253.140141,65.7529297 254.041011,65.9457989 254.890625,66.331543 L254.333984,67.6279297 C253.459957,67.2665998 252.725101,67.0859375 252.129395,67.0859375 C251.221187,67.0859375 250.76709,67.344724 250.76709,67.8623047 C250.76709,68.1162122 250.885497,68.3310538 251.122314,68.5068359 C251.359132,68.6826181 251.875484,68.9243149 252.671387,69.2319336 C253.340335,69.490724 253.82617,69.727538 254.128906,69.9423828 C254.431642,70.1572276 254.656249,70.4050279 254.802734,70.685791 C254.949219,70.9665541 255.022461,71.3022441 255.022461,71.6928711 Z" id="contra-los-piojos" fill="#FFFFFF"></path>
                <g id="Page-1">
                    <polygon id="Fill-1" fill="#FEFEFE" points="36.6114285 1 0 37.6113056 0 89.3882746 36.6114285 126 88.3885715 126 125 89.3882746 125 37.6113056 88.3885715 1"></polygon>
                    <polygon id="Fill-2" fill="#EC1D24" points="86.3173573 5 38.6826427 5 5 38.9754115 5 87.0241661 38.6826427 121 86.3173573 121 120 87.0241661 120 38.9754115"></polygon>
                    <g id="Group-51">
                        <path d="M26.2729446,56.0728188 L28.1508809,56.0728188 C30.8857802,56.0728188 31.5388842,53.746057 31.5388842,51.0870805 C31.5388842,48.0405201 30.8039849,45.7137584 28.0283977,45.7137584 L26.2729446,45.7137584 L26.2729446,56.0728188 Z M19.4147232,38.8446309 L30.0283977,38.8446309 C37.2540688,38.8446309 38.6420721,45.9352349 38.6420721,50.865604 C38.6420721,57.9562081 36.1517198,62.9419463 29.2939178,62.9419463 L26.2729446,62.9419463 L26.2729446,78.3974832 L19.4147232,78.3974832 L19.4147232,38.8446309 Z" id="Fill-3" fill="#FEFEFE"></path>
                        <path d="M49.4197987,46.046057 L49.3384228,46.046057 L46.9294463,63.6622483 L51.910151,63.6622483 L49.4197987,46.046057 Z M45.2562081,38.8447148 L53.8287752,38.8447148 L61.0951342,78.3975671 L53.9919463,78.3975671 L52.9307047,70.8635906 L45.95,70.8635906 L44.9294463,78.3975671 L37.8262584,78.3975671 L45.2562081,38.8447148 Z" id="Fill-5" fill="#FEFEFE"></path>
                        <path d="M70.157844,55.5187919 L72.2807466,55.5187919 C75.0563339,55.5187919 75.7912332,52.6937081 75.7912332,50.3669463 C75.7912332,47.375755 74.9749581,45.3816275 72.2396393,45.3816275 L70.157844,45.3816275 L70.157844,55.5187919 Z M63.2996225,38.8447148 L74.8113674,38.8447148 C80.6490352,38.8447148 82.6494547,43.7197148 82.6494547,49.1479866 C82.6494547,54.9093121 80.9346896,57.7348154 77.7509648,58.7872483 L77.7509648,58.898406 C82.1188339,59.728943 82.3638003,63.4407718 82.4451762,68.7583054 C82.5676594,76.569547 82.7719379,77.3451342 83.7518037,77.8988255 L83.7518037,78.3975671 L76.3625419,78.3975671 C75.8319211,77.0678691 75.6280621,74.8522651 75.6280621,70.3652685 C75.6280621,63.4961409 74.9338507,62.0557047 72.7706795,62.0557047 L70.157844,62.0557047 L70.157844,78.3975671 L63.2996225,78.3975671 L63.2996225,38.8447148 Z" id="Fill-7" fill="#FEFEFE"></path>
                        <path d="M96.2839765,46.046057 L96.2026007,46.046057 L93.7936242,63.6622483 L98.7743289,63.6622483 L96.2839765,46.046057 Z M92.1199664,38.8447148 L100.692953,38.8447148 L107.959312,78.3975671 L100.856124,78.3975671 L99.7948826,70.8635906 L92.8141779,70.8635906 L91.7936242,78.3975671 L84.6904362,78.3975671 L92.1199664,38.8447148 Z" id="Fill-9" fill="#FEFEFE"></path>
                        <path d="M77.1713507,88.9394295 L78.1180789,88.9394295 C78.9611997,88.9394295 79.6415688,88.2590604 79.878146,86.7980705 C80.1000419,85.3970638 79.8043205,84.5963087 78.7393037,84.5963087 L77.8517198,84.5963087 L77.1713507,88.9394295 Z M76.0618708,82.4746644 L79.7892198,82.4746644 C81.9490352,82.4746644 82.3483641,84.6160235 82.0081795,86.757802 C81.5497064,89.7196309 79.9964346,91.0610738 77.9846896,91.0610738 L76.8458473,91.0610738 L75.9435822,96.7649329 L73.8135487,96.7649329 L76.0618708,82.4746644 Z" id="Fill-11" fill="#FEFEFE"></path>
                        <polygon id="Fill-13" fill="#FEFEFE" points="82.3769715 96.7650168 84.6252936 82.4747483 86.7553272 82.4747483 84.876552 94.4034396 88.6487836 94.4034396 88.2788171 96.7650168"></polygon>
                        <path d="M94.0614933,82.4746225 L92.4935403,92.4419044 C92.2716443,93.8626258 92.3605705,94.9238674 93.3513423,94.9238674 C94.3425336,94.9238674 94.7565436,93.8626258 94.9784396,92.4419044 L96.5463926,82.4746225 L98.6764262,82.4746225 L97.1084732,92.4419044 C96.5317114,96.0845218 94.7418624,97.0450923 93.0111577,97.0450923 C91.2808725,97.0450923 89.7569631,96.2648909 90.3635067,92.4419044 L91.9314597,82.4746225 L94.0614933,82.4746225 Z" id="Fill-15" fill="#FEFEFE"></path>
                        <path d="M101.071728,92.3016779 L101.012584,92.7219799 C100.805369,94.0630034 100.95344,94.9237416 102.077181,94.9237416 C102.728188,94.9237416 103.438339,94.3633389 103.615772,93.1624161 C103.822987,91.8612416 103.408557,91.3813758 102.106963,90.720302 C100.361577,89.8402685 99.6518456,88.7794463 100.021393,86.3977349 C100.465185,83.6154362 101.944211,82.1942953 103.955956,82.1942953 C105.849413,82.1942953 107.047399,83.2953859 106.618708,86.0369966 L106.559564,86.4380034 L104.518037,86.4380034 C104.725252,85.0965604 104.503356,84.3159396 103.689597,84.3159396 C102.728188,84.3159396 102.34354,85.1368289 102.225252,85.9774329 C102.077181,86.8578859 102.181208,87.3985738 103.009228,87.9187081 L104.503356,88.8792785 C105.95302,89.8201342 106.189597,90.9208054 105.923238,92.6619966 C105.434983,95.6842282 103.86745,97.0453859 101.559983,97.0453859 C99.1489094,97.0453859 98.4387584,95.5244128 98.8527685,92.8822148 L98.9416946,92.3016779 L101.071728,92.3016779 Z" id="Fill-17" fill="#FEFEFE"></path>
                        <path d="M29.8634228,28.9952601 L29.8634228,29.6861158 C33.5236577,28.3002097 37.128104,28.3002097 40.6780201,29.6861158 L40.6780201,28.9952601 C37.0442114,27.6601091 33.4397651,27.6601091 29.8634228,28.9952601" id="Fill-19" fill="#FEFEFE"></path>
                        <path d="M28.5028943,24.9404782 C29.5054111,26.5415688 29.8846057,27.9526426 29.8636326,28.7231963 C33.3279782,27.3972735 36.9190017,27.3771393 40.6358641,28.664052 C40.7466023,27.2357802 41.2247903,25.9547399 42.0695889,24.823448 C41.9106124,24.9236997 41.9974413,24.7018037 41.8502097,24.7831795 C39.9223574,26.4618708 38.9219379,25.6288171 38.8166527,23.8012164 C37.6190856,25.8037332 36.4374581,25.6233641 35.2705117,23.2601091 C34.040646,25.6648909 32.7952601,25.8251258 31.5339346,23.738297 C31.2663171,25.5709312 30.3787332,26.1862836 28.7776426,24.9564178 C28.6971057,24.7483641 28.6136326,25.016401 28.5028943,24.9404782" id="Fill-21" fill="#FEFEFE"></path>
                        <path d="M41.5542785,24.5462248 C41.5542785,24.2693792 41.7812081,24.0453859 42.0609899,24.0453859 C42.3407718,24.0453859 42.5677013,24.2693792 42.5677013,24.5462248 C42.5677013,24.8230705 42.3407718,25.0466443 42.0609899,25.0466443 C41.7812081,25.0466443 41.5542785,24.8230705 41.5542785,24.5462248" id="Fill-23" fill="#FEFEFE"></path>
                        <path d="M38.3638842,23.6485738 C38.3638842,23.3721477 38.5908138,23.1481544 38.8705956,23.1481544 C39.150797,23.1481544 39.3777265,23.3721477 39.3777265,23.6485738 C39.3777265,23.9245805 39.150797,24.1489933 38.8705956,24.1489933 C38.5908138,24.1489933 38.3638842,23.9245805 38.3638842,23.6485738" id="Fill-25" fill="#FEFEFE"></path>
                        <path d="M34.813297,23.0408138 C34.813297,22.7639681 35.040646,22.5399748 35.3204279,22.5399748 C35.6002097,22.5399748 35.8271393,22.7639681 35.8271393,23.0408138 C35.8271393,23.3172399 35.6002097,23.5412332 35.3204279,23.5412332 C35.040646,23.5412332 34.813297,23.3172399 34.813297,23.0408138" id="Fill-27" fill="#FEFEFE"></path>
                        <path d="M31.0722315,23.6395973 C31.0722315,23.3631711 31.2995805,23.1391779 31.578943,23.1391779 C31.8591443,23.1391779 32.0856544,23.3631711 32.0856544,23.6395973 C32.0856544,23.9160235 31.8591443,24.1404362 31.578943,24.1404362 C31.2995805,24.1404362 31.0722315,23.9160235 31.0722315,23.6395973" id="Fill-29" fill="#FEFEFE"></path>
                        <path d="M28.0267617,24.6365772 C28.0267617,24.3597315 28.2541107,24.1357383 28.5334732,24.1357383 C28.8136745,24.1357383 29.0401846,24.3597315 29.0401846,24.6365772 C29.0401846,24.9125839 28.8136745,25.1374161 28.5334732,25.1374161 C28.2541107,25.1374161 28.0267617,24.9125839 28.0267617,24.6365772" id="Fill-31" fill="#FEFEFE"></path>
                        <path d="M95.8781879,27.5743708 C95.8781879,27.9271393 95.8387584,28.1939178 95.7594799,28.3751258 C95.6558725,28.6087668 95.4935403,28.7933305 95.2729027,28.9283977 C95.0518456,29.0630453 94.7993289,29.1305789 94.5161913,29.1305789 C94.229698,29.1305789 94.0124161,29.0592701 93.8639262,28.9170721 C93.7150168,28.7748742 93.6407718,28.5970218 93.6407718,28.3835151 C93.6407718,28.2446728 93.6751678,28.117156 93.7431208,28.0034815 C93.8119128,27.8893876 93.9088087,27.8025587 94.0342282,27.7434144 C94.1600671,27.6838507 94.3744128,27.6309983 94.6776846,27.5831795 C95.2129195,27.5005453 95.6143456,27.3994547 95.8823826,27.2811661 L95.8781879,27.5743708 Z M96.6722315,29.0877936 C96.6416107,28.8881292 96.6265101,28.4158138 96.6265101,27.6708473 L96.6265101,26.6024748 C96.6265101,26.2459312 96.6143456,25.9988674 96.5895973,25.861703 C96.5459732,25.6410654 96.4696309,25.4577601 96.3597315,25.3126258 C96.2510906,25.1679111 96.0803691,25.0479446 95.8479866,24.952307 C95.6160235,24.8566695 95.3140101,24.8084312 94.9427852,24.8084312 C94.5686242,24.8084312 94.2393456,24.8646393 93.9553691,24.9770554 C93.6713926,25.089052 93.4541107,25.248448 93.303943,25.4560822 C93.1537752,25.6641359 93.0459732,25.9363674 92.9805369,26.2736158 L93.6994966,26.3835151 C93.7783557,26.0454279 93.9004195,25.8096896 94.0661074,25.6771393 C94.2313758,25.5441695 94.4872483,25.4774748 94.8337248,25.4774748 C95.2049497,25.4774748 95.4847315,25.5676594 95.6734899,25.7488674 C95.8127517,25.8822567 95.8823826,26.1129614 95.8823826,26.4393037 L95.8781879,26.6490352 C95.5971477,26.7564178 95.1596477,26.8486997 94.564849,26.9254614 C94.2729027,26.9644715 94.0547819,27.0047399 93.9104866,27.0462668 C93.7137584,27.1054111 93.5375839,27.1934983 93.3807047,27.3092701 C93.2238255,27.4254614 93.0967282,27.5789849 92.9998322,27.7706795 C92.9029362,27.9623742 92.8551174,28.1746225 92.8551174,28.4065856 C92.8551174,28.8021393 92.9830537,29.1268037 93.2393456,29.3809983 C93.4956376,29.635193 93.8626678,29.7622903 94.3400168,29.7622903 C94.6290268,29.7622903 94.8995805,29.7102768 95.1520973,29.6049916 C95.4041946,29.5001258 95.667198,29.3205956 95.9406879,29.066401 C95.9620805,29.2933305 96.0090604,29.492156 96.0828859,29.6616191 L96.8521812,29.6616191 C96.7619966,29.4783138 96.7024329,29.2874581 96.6722315,29.0877936 L96.6722315,29.0877936 Z" id="Fill-33" fill="#FEFEFE"></path>
                        <path d="M90.6724413,24.8083893 C90.1200084,24.8083893 89.6716023,25.0856544 89.3272232,25.6389262 C89.2429111,25.3767617 89.0981963,25.1729027 88.8930789,25.027349 C88.6875419,24.8813758 88.4249581,24.8083893 88.1036493,24.8083893 C87.8158977,24.8083893 87.5591862,24.8792785 87.3330956,25.0206376 C87.1074245,25.1619966 86.9262164,25.3486577 86.7907299,25.5806208 L86.7907299,24.9094799 L86.1300755,24.9094799 L86.1300755,29.6615772 L86.8662332,29.6615772 L86.8662332,27.1989094 C86.8662332,26.7668624 86.9056628,26.4354866 86.9841023,26.2064597 C87.0633809,25.9770134 87.1904782,25.8025168 87.3662332,25.6829698 C87.5411493,25.5646812 87.7324245,25.504698 87.9392198,25.504698 C88.2110319,25.504698 88.4069211,25.5936242 88.5264681,25.7727349 C88.6460151,25.9514262 88.7059983,26.2194631 88.7059983,26.5772651 L88.7059983,29.6615772 L89.4417366,29.6615772 L89.4417366,26.9040268 C89.4417366,26.4153523 89.5432466,26.0596477 89.7450084,25.8373322 C89.9471896,25.6154362 90.2009648,25.504698 90.5071728,25.504698 C90.6762164,25.504698 90.8238674,25.5479027 90.9497064,25.6343121 C91.0751258,25.7207215 91.1623742,25.8348154 91.2097735,25.976594 C91.2575923,26.1175336 91.2815017,26.3494966 91.2815017,26.6712248 L91.2815017,29.6615772 L92.0172399,29.6615772 L92.0172399,26.4040268 C92.0172399,25.8620805 91.9014681,25.4606544 91.6686661,25.2001678 C91.436703,24.9388423 91.1044883,24.8083893 90.6724413,24.8083893" id="Fill-35" fill="#FEFEFE"></path>
                        <path d="M84.4576762,24.9699664 C84.3146393,25.0777685 84.1581795,25.3000839 83.9895554,25.6373322 L83.9895554,24.9095638 L83.328901,24.9095638 L83.328901,29.6616611 L84.0646393,29.6616611 L84.0646393,27.1784396 C84.0646393,26.8386745 84.1057466,26.5261745 84.1871225,26.2405201 C84.2412332,26.0526007 84.3322567,25.9057886 84.459354,25.8005034 C84.5864513,25.6947987 84.7299077,25.6423658 84.8893037,25.6423658 C85.0675755,25.6423658 85.2458473,25.6973154 85.4245386,25.8072148 L85.686703,25.0635067 C85.4304111,24.8936242 85.1783138,24.8084732 84.9304111,24.8084732 C84.7584312,24.8084732 84.6011326,24.8625839 84.4576762,24.9699664" id="Fill-37" fill="#FEFEFE"></path>
                        <path d="M81.4536074,27.5743708 C81.4536074,27.9271393 81.4141779,28.1939178 81.3348993,28.3751258 C81.2312919,28.6087668 81.0689597,28.7933305 80.8483221,28.9283977 C80.6272651,29.0630453 80.3747483,29.1305789 80.0916107,29.1305789 C79.8051174,29.1305789 79.5878356,29.0592701 79.4393456,28.9170721 C79.2904362,28.7748742 79.2166107,28.5970218 79.2166107,28.3835151 C79.2166107,28.2446728 79.2505872,28.117156 79.3189597,28.0034815 C79.3873322,27.8893876 79.4842282,27.8025587 79.6096477,27.7434144 C79.7354866,27.6838507 79.9498322,27.6309983 80.2535235,27.5831795 C80.7887584,27.5005453 81.1901846,27.3994547 81.4573826,27.2811661 L81.4536074,27.5743708 Z M82.2015101,27.6708473 L82.2015101,26.6024748 C82.2015101,26.2459312 82.1897651,25.9988674 82.1650168,25.861703 C82.1213926,25.6410654 82.0450503,25.4577601 81.9355705,25.3126258 C81.8260906,25.1679111 81.6557886,25.0479446 81.423406,24.952307 C81.191443,24.8566695 80.8894295,24.8084312 80.5182047,24.8084312 C80.1440436,24.8084312 79.8147651,24.8646393 79.5307886,24.9770554 C79.2468121,25.089052 79.0295302,25.248448 78.878943,25.4560822 C78.7291946,25.6641359 78.6209732,25.9363674 78.5559564,26.2736158 L79.2749161,26.3835151 C79.3541946,26.0454279 79.4758389,25.8096896 79.6415268,25.6771393 C79.8067953,25.5441695 80.0626678,25.4774748 80.4091443,25.4774748 C80.7803691,25.4774748 81.060151,25.5676594 81.2484899,25.7488674 C81.3877517,25.8822567 81.4573826,26.1129614 81.4573826,26.4393037 L81.4536074,26.6490352 C81.1725671,26.7564178 80.7346477,26.8486997 80.1402685,26.9254614 C79.8483221,26.9644715 79.6302013,27.0047399 79.485906,27.0462668 C79.2891779,27.1054111 79.1130034,27.1934983 78.9561242,27.3092701 C78.799245,27.4254614 78.6725671,27.5789849 78.5752517,27.7706795 C78.4783557,27.9623742 78.4305369,28.1746225 78.4305369,28.4065856 C78.4305369,28.8021393 78.5584732,29.1268037 78.8147651,29.3809983 C79.071057,29.635193 79.4376678,29.7622903 79.9154362,29.7622903 C80.2044463,29.7622903 80.4754195,29.7102768 80.7275168,29.6049916 C80.9796141,29.5001258 81.242198,29.3205956 81.5161074,29.066401 C81.5375,29.2933305 81.5844799,29.492156 81.6587248,29.6616191 L82.4276007,29.6616191 C82.3374161,29.4783138 82.2778523,29.2874581 82.247651,29.0877936 C82.2170302,28.8881292 82.2015101,28.4158138 82.2015101,27.6708473 L82.2015101,27.6708473 Z" id="Fill-39" fill="#FEFEFE"></path>
                        <path d="M76.8873742,25.0167785 C76.6516359,24.8783557 76.3735319,24.8083054 76.053901,24.8083054 C75.5333473,24.8083054 75.1025587,25.0272651 74.7615352,25.4643456 L74.7615352,23.1057047 L74.0249581,23.1057047 L74.0249581,29.6614933 L74.7615352,29.6614933 L74.7615352,27.0671141 C74.7615352,26.6950503 74.8018037,26.4035235 74.8827601,26.1925336 C74.9641359,25.9807047 75.0996225,25.8133389 75.2908977,25.6900168 C75.4813339,25.5666946 75.6847735,25.5050336 75.900797,25.5050336 C76.190646,25.5050336 76.4146393,25.596057 76.5723574,25.778943 C76.7309144,25.9622483 76.8097735,26.2546141 76.8097735,26.6568792 L76.8097735,29.6614933 L77.5455117,29.6614933 L77.5455117,26.6543624 C77.5455117,26.1895973 77.4951762,25.8347315 77.3932466,25.590604 C77.2917366,25.346896 77.1235319,25.1547819 76.8873742,25.0167785" id="Fill-41" fill="#FEFEFE"></path>
                        <path d="M71.9805789,25.9058305 C71.7653943,26.1143037 71.4017198,26.21875 70.8903943,26.21875 L69.3425755,26.21875 L69.3425755,23.8752097 L70.8736158,23.8752097 C71.2335151,23.8752097 71.4797399,23.8940856 71.6131292,23.9330956 C71.8199245,23.9955956 71.9864513,24.1243708 72.1131292,24.3198406 C72.239807,24.5153104 72.3027265,24.7502097 72.3027265,25.0245386 C72.3027265,25.4033138 72.1957634,25.6969379 71.9805789,25.9058305 M72.4604446,23.4737836 C72.2616191,23.3236158 72.0145554,23.2221057 71.7200923,23.167995 C71.5107802,23.1264681 71.2066695,23.1059144 70.808599,23.1059144 L68.5481124,23.1059144 L68.5481124,29.661703 L69.3425755,29.661703 L69.3425755,26.9880453 L70.8790688,26.9880453 C71.7263842,26.9880453 72.3123742,26.7955117 72.6361997,26.4100252 C72.9604446,26.0249581 73.1227768,25.553901 73.1227768,24.997693 C73.1227768,24.673448 73.0619547,24.3760487 72.9407299,24.1050755 C72.819505,23.8341023 72.6592701,23.6239513 72.4604446,23.4737836" id="Fill-43" fill="#FEFEFE"></path>
                        <mask id="mask-2" fill="white">
                            <use xlink:href="#path-1"></use>
                        </mask>
                        <g id="Clip-46"></g>
                        <polygon id="Fill-45" fill="#FEFEFE" mask="url(#mask-2)" points="64.2583893 29.6619128 64.9941275 29.6619128 64.9941275 23.1061242 64.2583893 23.1061242"></polygon>
                        <path d="M62.3913591,27.5743708 C62.3913591,27.9271393 62.3519295,28.1939178 62.272651,28.3751258 C62.1694631,28.6087668 62.0071309,28.7933305 61.7860738,28.9283977 C61.5650168,29.0630453 61.3129195,29.1305789 61.0293624,29.1305789 C60.7432886,29.1305789 60.5255872,29.0592701 60.3770973,28.9170721 C60.2281879,28.7748742 60.1543624,28.5970218 60.1543624,28.3835151 C60.1543624,28.2446728 60.1883389,28.117156 60.2567114,28.0034815 C60.3246644,27.8893876 60.4219799,27.8025587 60.5478188,27.7434144 C60.6732383,27.6838507 60.8880034,27.6309983 61.1904362,27.5831795 C61.7265101,27.5005453 62.1275168,27.3994547 62.3955537,27.2811661 L62.3913591,27.5743708 Z M63.1396812,27.6708473 L63.1396812,26.6024748 C63.1396812,26.2459312 63.1275168,25.9988674 63.1031879,25.861703 C63.0587248,25.6410654 62.982802,25.4577601 62.8733221,25.3126258 C62.7642617,25.1679111 62.5939597,25.0479446 62.3615772,24.952307 C62.1296141,24.8566695 61.8276007,24.8084312 61.4559564,24.8084312 C61.0817953,24.8084312 60.7525168,24.8646393 60.4685403,24.9770554 C60.1845638,25.089052 59.9672819,25.248448 59.8171141,25.4560822 C59.6669463,25.6641359 59.5591443,25.9363674 59.4937081,26.2736158 L60.2126678,26.3835151 C60.2919463,26.0454279 60.4140101,25.8096896 60.5792785,25.6771393 C60.744547,25.5441695 61.0004195,25.4774748 61.346896,25.4774748 C61.7185403,25.4774748 61.9983221,25.5676594 62.1862416,25.7488674 C62.3259228,25.8822567 62.3955537,26.1129614 62.3955537,26.4393037 L62.3913591,26.6490352 C62.1107383,26.7564178 61.6728188,26.8486997 61.0784396,26.9254614 C60.7864933,26.9644715 60.567953,27.0047399 60.4236577,27.0462668 C60.2269295,27.1054111 60.050755,27.1934983 59.8938758,27.3092701 C59.7369966,27.4254614 59.6107383,27.5789849 59.5134228,27.7706795 C59.4165268,27.9623742 59.3682886,28.1746225 59.3682886,28.4065856 C59.3682886,28.8021393 59.4966443,29.1268037 59.7525168,29.3809983 C60.0088087,29.635193 60.3758389,29.7622903 60.8527685,29.7622903 C61.142198,29.7622903 61.4131711,29.7102768 61.6652685,29.6049916 C61.9177852,29.5001258 62.1803691,29.3205956 62.4542785,29.066401 C62.4752517,29.2933305 62.5222315,29.492156 62.5964765,29.6616191 L63.3653523,29.6616191 C63.2755872,29.4783138 63.215604,29.2874581 63.1854027,29.0877936 C63.1552013,28.8881292 63.1396812,28.4158138 63.1396812,27.6708473 L63.1396812,27.6708473 Z" id="Fill-47" fill="#FEFEFE" mask="url(#mask-2)"></path>
                        <path d="M57.3309564,27.6806628 C57.2135067,28.0321728 57.1128356,28.3891359 57.0276846,28.7498742 C56.9345638,28.3660654 56.829698,28.0002936 56.7118289,27.6525587 L55.8057886,24.9096896 L55.0197148,24.9096896 L56.6669463,29.677307 L56.6019295,29.8744547 C56.4979027,30.1940856 56.4228188,30.3941695 56.3762584,30.4751258 C56.3133389,30.5820889 56.2332215,30.6659815 56.1350671,30.7259648 C56.0369128,30.7855285 55.9060403,30.8153104 55.7420302,30.8153104 C55.6220638,30.8153104 55.4819631,30.791401 55.3204698,30.7440017 L55.4043624,31.4881292 C55.5792785,31.552307 55.7378356,31.5846057 55.8791946,31.5846057 C56.1145134,31.5846057 56.3162752,31.5229446 56.4857383,31.3996225 C56.6552013,31.2763003 56.8053691,31.0829279 56.9362416,30.8182466 C57.0348154,30.6223574 57.1728188,30.2641359 57.3502517,29.7448406 L58.9903523,24.9096896 L58.2562919,24.9096896 L57.3309564,27.6806628 Z" id="Fill-48" fill="#FEFEFE" mask="url(#mask-2)"></path>
                        <path d="M53.4527265,28.648448 C53.2098574,28.9517198 52.9057466,29.103146 52.5403943,29.103146 C52.1716862,29.103146 51.8658977,28.9521393 51.6226091,28.6505453 C51.3797399,28.3485319 51.2585151,27.8942534 51.2585151,27.2877097 C51.2585151,26.6811661 51.3797399,26.228146 51.6226091,25.9273909 C51.8658977,25.6274748 52.1716862,25.477307 52.5403943,25.477307 C52.9028104,25.477307 53.2065017,25.6283138 53.4510487,25.9294883 C53.6951762,26.2315017 53.8172399,26.6748742 53.8172399,27.2608641 C53.8172399,27.8825084 53.6960151,28.3447567 53.4527265,28.648448 M52.5403943,24.8082634 C52.0034815,24.8082634 51.5487836,24.9840185 51.1758809,25.3355285 C50.7287332,25.7579279 50.5059983,26.4080956 50.5059983,27.2856124 C50.5059983,28.085948 50.6926594,28.699203 51.0672399,29.1241191 C51.4418205,29.5498742 51.9325923,29.7625419 52.5403943,29.7625419 C52.91875,29.7625419 53.2677433,29.6660654 53.5877936,29.472693 C53.907844,29.2784815 54.1511326,29.0079279 54.3189178,28.6576762 C54.4862836,28.3082634 54.5701762,27.8288171 54.5701762,27.2184983 C54.5701762,26.4659815 54.3805789,25.8762164 54.0022232,25.449203 C53.6238674,25.0221896 53.1364513,24.8082634 52.5403943,24.8082634" id="Fill-49" fill="#FEFEFE" mask="url(#mask-2)"></path>
                        <path d="M47.3421141,25.9989933 L45.6407718,25.9989933 L45.6407718,23.8286913 L47.5338087,23.8286913 C47.9755034,23.8286913 48.2993289,23.9285235 48.5031879,24.1290268 C48.7083054,24.3286913 48.8102349,24.5833054 48.8102349,24.8937081 C48.8102349,25.1055369 48.757802,25.3018456 48.6520973,25.4822148 C48.5468121,25.6625839 48.3920302,25.7938758 48.1890101,25.8760906 C47.9859899,25.9583054 47.7036913,25.9989933 47.3421141,25.9989933 M48.4230705,27.0031879 C48.3140101,26.8958054 48.1550336,26.786745 47.945302,26.6768456 C48.519547,26.5900168 48.9436242,26.3878356 49.217953,26.0686242 C49.4927013,25.7498322 49.6302852,25.3580537 49.6302852,24.8932886 C49.6302852,24.5329698 49.5472315,24.2036913 49.3815436,23.9058725 C49.2154362,23.6076342 48.9939597,23.4 48.7166946,23.2825503 C48.4390101,23.1646812 48.0338087,23.1059564 47.5010906,23.1059564 L44.8467282,23.1059564 L44.8467282,29.661745 L45.6407718,29.661745 L45.6407718,26.7498322 L46.5589765,26.7498322 C46.7624161,26.7498322 46.9096477,26.7603188 46.9994128,26.7812919 C47.1214765,26.8135906 47.2422819,26.8714765 47.3605705,26.9545302 C47.4784396,27.0380034 47.6126678,27.183557 47.7619966,27.3928691 C47.9113255,27.6017617 48.1017617,27.9029362 48.3328859,28.2968121 L49.1239933,29.661745 L50.1139262,29.661745 L49.0782718,27.8756711 C48.8727349,27.5266779 48.6541946,27.2355705 48.4230705,27.0031879" id="Fill-50" fill="#FEFEFE" mask="url(#mask-2)"></path>
                    </g>
                </g>
            </g>
        </g>
    </g>
</svg>